M48
; DRILL file {KiCad 8.0.6} date 2024-11-09T22:42:30+0800
; FORMAT={-:-/ absolute / inch / decimal}
; #@! TF.CreationDate,2024-11-09T22:42:30+08:00
; #@! TF.GenerationSoftware,Kicad,Pcbnew,8.0.6
; #@! TF.FileFunction,Plated,1,2,PTH
FMAT,2
INCH
; #@! TA.AperFunction,Plated,PTH,ViaDrill
T1C0.0118
; #@! TA.AperFunction,Plated,PTH,ComponentDrill
T2C0.0236
; #@! TA.AperFunction,Plated,PTH,ComponentDrill
T3C0.0256
; #@! TA.AperFunction,Plated,PTH,ComponentDrill
T4C0.0394
%
G90
G05
T1
X5.562Y-4.7244
X5.5787Y-3.6909
X5.5807Y-3.5591
X5.5827Y-3.1575
X5.5866Y-4.7953
X5.6193Y-3.2953
X5.6265Y-3.4961
X5.6265Y-3.75
X5.6265Y-3.9508
X5.6417Y-4.3543
X5.6417Y-4.5551
X5.6457Y-4.6732
X5.6732Y-3.1575
X5.6772Y-4.7953
X5.6845Y-3.2953
X5.7183Y-3.5591
X5.7205Y-3.4961
X5.7402Y-4.2264
X5.7498Y-3.2953
X5.7638Y-3.1575
X5.7648Y-4.7244
X5.7677Y-4.7953
X5.7795Y-4.126
X5.7835Y-3.8071
X5.7953Y-3.9921
X5.815Y-3.2953
X5.8189Y-4.3031
X5.8248Y-3.8917
X5.8268Y-4.0472
X5.8425Y-4.5315
X5.8543Y-3.1575
X5.8583Y-4.7953
X5.8858Y-3.6831
X5.8858Y-4.3858
X5.8898Y-3.3346
X5.9094Y-4.0709
X5.9213Y-3.8898
X5.937Y-4.1358
X5.9449Y-3.1575
X5.9449Y-3.624
X5.9449Y-3.7402
X5.9488Y-4.7953
X5.9528Y-4.2441
X5.9567Y-4.7323
X5.9646Y-3.3346
X5.9685Y-4.6181
X5.9882Y-4.3622
X6.0039Y-3.565
X6.0039Y-3.6811
X6.0039Y-3.7992
X6.0295Y-4.0354
X6.0354Y-3.1575
X6.0394Y-4.7953
X6.0433Y-4.1634
X6.0433Y-4.2402
X6.0512Y-4.2992
X6.0591Y-4.5079
X6.063Y-3.5039
X6.063Y-3.622
X6.063Y-3.7402
X6.0709Y-4.4646
X6.0827Y-4.6693
X6.106Y-3.3778
X6.1102Y-4.5079
X6.1142Y-4.0354
X6.1142Y-4.252
X6.1142Y-4.311
X6.122Y-3.563
X6.122Y-3.6811
X6.126Y-3.1575
X6.1299Y-4.7953
X6.1476Y-4.5571
X6.1496Y-4.5197
X6.1555Y-3.9508
X6.1693Y-3.9902
X6.1811Y-3.622
X6.1811Y-4.0551
X6.1811Y-4.1811
X6.1929Y-3.3425
X6.1955Y-4.4137
X6.1967Y-3.8938
X6.2076Y-4.6672
X6.2165Y-3.1575
X6.2205Y-4.7953
X6.2233Y-4.3858
X6.2233Y-4.4415
X6.2244Y-3.5236
X6.2283Y-3.8465
X6.2304Y-4.6241
X6.2323Y-4.0276
X6.2323Y-4.1181
X6.2323Y-4.1732
X6.2323Y-4.2244
X6.2441Y-3.4252
X6.2511Y-4.358
X6.2511Y-4.4137
X6.2511Y-4.4693
X6.2677Y-3.8071
X6.2696Y-3.9666
X6.279Y-4.3301
X6.279Y-4.3858
X6.279Y-4.4415
X6.279Y-4.4972
X6.2874Y-4.1988
X6.3068Y-4.3023
X6.3068Y-4.358
X6.3068Y-4.4137
X6.3068Y-4.4693
X6.3068Y-4.525
X6.3071Y-3.1575
X6.311Y-4.7953
X6.3179Y-4.0994
X6.3189Y-3.7441
X6.3294Y-4.6535
X6.3346Y-4.3301
X6.3346Y-4.3858
X6.3346Y-4.4415
X6.3346Y-4.4972
X6.3445Y-4.1929
X6.3465Y-4.6271
X6.3524Y-4.1004
X6.3563Y-4.0098
X6.3583Y-3.8819
X6.3622Y-3.685
X6.3622Y-3.7835
X6.3625Y-4.358
X6.3625Y-4.4137
X6.3625Y-4.4693
X6.3903Y-4.3858
X6.3903Y-4.4415
X6.3976Y-3.1575
X6.4016Y-4.7953
X6.4075Y-3.4402
X6.4119Y-4.2583
X6.4182Y-4.4137
X6.4449Y-3.5984
X6.4449Y-4.2244
X6.4724Y-3.7047
X6.4744Y-4.0138
X6.4744Y-4.5571
X6.4764Y-4.3346
X6.4803Y-4.622
X6.4862Y-4.252
X6.4882Y-3.1575
X6.4921Y-4.7953
X6.5039Y-3.2598
X6.5039Y-4.4035
X6.5079Y-3.5276
X6.5197Y-4.5276
X6.5217Y-4.1575
X6.5551Y-4.0945
X6.5591Y-4.1614
X6.565Y-3.5925
X6.565Y-3.9724
X6.5659Y-4.2717
X6.5669Y-4.5196
X6.5669Y-3.6575
X6.5669Y-3.8504
X6.5787Y-3.1575
X6.5787Y-3.5236
X6.5827Y-4.7953
X6.6181Y-3.3169
X6.622Y-4.7008
X6.6575Y-3.5236
X6.6614Y-4.5748
X6.6693Y-3.1575
X6.6693Y-4.4567
X6.6713Y-3.8071
X6.6732Y-4.7953
X6.6929Y-4.126
X6.7205Y-3.5472
X6.7244Y-4.3071
X6.7283Y-3.6299
X6.7402Y-4.5118
X6.7441Y-3.3622
X6.7598Y-3.1575
X6.7598Y-4.6496
X6.7638Y-4.7953
X6.7874Y-3.8937
X6.8012Y-3.2598
X6.8031Y-3.5197
X6.8504Y-3.1575
X6.8543Y-4.7953
X6.874Y-4.6535
X6.9055Y-3.4016
X6.9094Y-4.1457
X6.9094Y-4.2109
X6.9094Y-4.2761
X6.9094Y-4.3413
X6.9094Y-4.4065
X6.9094Y-4.5748
X6.9124Y-3.5561
X6.9124Y-3.6213
X6.9124Y-3.6865
X6.9124Y-3.7517
X6.9124Y-3.8169
X6.9409Y-3.1575
X6.9449Y-3.4764
X6.9449Y-4.7953
X6.9488Y-4.5
X6.9882Y-3.4291
X7.0039Y-4.565
X7.0079Y-4.0551
X7.0315Y-3.1575
X7.0354Y-4.7953
X7.0384Y-3.6695
X7.0384Y-3.7347
X7.0384Y-3.8
X7.0384Y-3.8652
X7.0433Y-3.5984
X7.0433Y-4.0945
X7.0433Y-4.1597
X7.0433Y-4.2249
X7.0433Y-4.2901
X7.0433Y-4.3553
X7.0472Y-3.3642
X7.0945Y-4.5433
X7.1102Y-4.3465
X7.122Y-3.1575
X7.126Y-4.7953
X7.1654Y-3.878
X7.1688Y-3.3642
X7.1688Y-3.565
X7.1688Y-4.0768
X7.1688Y-4.3839
X7.1688Y-4.5846
X7.1708Y-3.7402
X7.1708Y-4.2205
X7.2126Y-3.1575
X7.2126Y-3.2244
X7.2126Y-3.3071
X7.2126Y-4.6378
X7.2126Y-4.7126
X7.2165Y-4.7953
T3
X5.7041Y-4.3469
X5.7041Y-4.5744
T4
X5.5984Y-4.0719
X5.5984Y-4.1719
X5.9307Y-3.2362
X6.0307Y-3.2362
X6.1307Y-3.2362
X6.2307Y-3.2362
X6.3307Y-3.2362
T2
G00X5.5762Y-4.2906
M15
G01X5.5447Y-4.2906
M16
G05
G00X5.5762Y-4.6307
M15
G01X5.5447Y-4.6307
M16
G05
G00X5.7455Y-4.2906
M15
G01X5.7022Y-4.2906
M16
G05
G00X5.7455Y-4.6307
M15
G01X5.7022Y-4.6307
M16
G05
M30
