%TF.GenerationSoftware,KiCad,Pcbnew,8.0.6*%
%TF.CreationDate,2024-11-09T22:42:30+08:00*%
%TF.ProjectId,usb_si5351_gpsdo,7573625f-7369-4353-9335-315f67707364,rev?*%
%TF.SameCoordinates,Original*%
%TF.FileFunction,Legend,Top*%
%TF.FilePolarity,Positive*%
%FSLAX46Y46*%
G04 Gerber Fmt 4.6, Leading zero omitted, Abs format (unit mm)*
G04 Created by KiCad (PCBNEW 8.0.6) date 2024-11-09 22:42:30*
%MOMM*%
%LPD*%
G01*
G04 APERTURE LIST*
G04 Aperture macros list*
%AMRoundRect*
0 Rectangle with rounded corners*
0 $1 Rounding radius*
0 $2 $3 $4 $5 $6 $7 $8 $9 X,Y pos of 4 corners*
0 Add a 4 corners polygon primitive as box body*
4,1,4,$2,$3,$4,$5,$6,$7,$8,$9,$2,$3,0*
0 Add four circle primitives for the rounded corners*
1,1,$1+$1,$2,$3*
1,1,$1+$1,$4,$5*
1,1,$1+$1,$6,$7*
1,1,$1+$1,$8,$9*
0 Add four rect primitives between the rounded corners*
20,1,$1+$1,$2,$3,$4,$5,0*
20,1,$1+$1,$4,$5,$6,$7,0*
20,1,$1+$1,$6,$7,$8,$9,0*
20,1,$1+$1,$8,$9,$2,$3,0*%
%AMRotRect*
0 Rectangle, with rotation*
0 The origin of the aperture is its center*
0 $1 length*
0 $2 width*
0 $3 Rotation angle, in degrees counterclockwise*
0 Add horizontal line*
21,1,$1,$2,0,0,$3*%
%AMFreePoly0*
4,1,119,0.522361,0.454721,0.531803,0.450001,0.570000,0.450000,0.585811,0.447435,0.608113,0.440000,0.620000,0.440000,0.635811,0.437434,0.665811,0.427434,0.672361,0.424721,0.712361,0.404721,0.725355,0.395355,0.739617,0.381093,0.752361,0.374721,0.765355,0.365355,0.779617,0.351093,0.792361,0.344721,0.805355,0.335355,0.845355,0.295355,0.854721,0.282360,0.861093,0.269617,
0.875355,0.255355,0.884721,0.242361,0.904721,0.202361,0.907434,0.195811,0.916310,0.169182,0.924721,0.152361,0.927434,0.145811,0.937434,0.115811,0.940000,0.100000,0.940000,0.068113,0.947434,0.045811,0.950000,0.030000,0.950000,-0.020001,0.947434,-0.035811,0.939999,-0.058113,0.940000,-0.090000,0.937434,-0.105811,0.927434,-0.135811,0.924721,-0.142361,0.916310,-0.159182,
0.907434,-0.185811,0.904721,-0.192361,0.884721,-0.232361,0.875355,-0.245355,0.861093,-0.259617,0.854721,-0.272361,0.845355,-0.285355,0.805355,-0.325355,0.792361,-0.334721,0.779617,-0.341093,0.765355,-0.355355,0.752361,-0.364721,0.739617,-0.371093,0.725355,-0.385356,0.712361,-0.394721,0.672361,-0.414721,0.665811,-0.417434,0.635811,-0.427434,0.620000,-0.430000,0.608113,-0.430000,
0.585810,-0.437434,0.570000,-0.440000,-0.580000,-0.440000,-0.602361,-0.434721,-0.611803,-0.430000,-0.630000,-0.430000,-0.652361,-0.424721,-0.712361,-0.394721,-0.717735,-0.391603,-0.745149,-0.373327,-0.762361,-0.364721,-0.775355,-0.355355,-0.789617,-0.341093,-0.802360,-0.334721,-0.824721,-0.312361,-0.831093,-0.299617,-0.865355,-0.265355,-0.874721,-0.252361,-0.904721,-0.192361,-0.907434,-0.185811,
-0.916310,-0.159182,-0.924721,-0.142361,-0.927434,-0.135811,-0.937434,-0.105811,-0.940000,-0.090000,-0.940000,-0.081803,-0.944722,-0.072361,-0.950000,-0.050000,-0.950000,0.060000,-0.944722,0.082361,-0.940000,0.091803,-0.940000,0.100000,-0.937434,0.115811,-0.927434,0.145811,-0.924721,0.152361,-0.916310,0.169182,-0.907434,0.195811,-0.904721,0.202361,-0.874721,0.262361,-0.865355,0.275355,
-0.831093,0.309617,-0.824721,0.322361,-0.802360,0.344721,-0.789617,0.351093,-0.775355,0.365355,-0.762361,0.374721,-0.745149,0.383327,-0.717735,0.401603,-0.712361,0.404721,-0.652361,0.434721,-0.630000,0.440000,-0.611803,0.440000,-0.602361,0.444721,-0.580000,0.450000,-0.538113,0.450000,-0.515811,0.457434,-0.500000,0.460001,0.500000,0.460001,0.522361,0.454721,0.522361,0.454721,
$1*%
G04 Aperture macros list end*
%ADD10C,0.075000*%
%ADD11C,0.150000*%
%ADD12C,0.120000*%
%ADD13C,0.250000*%
%ADD14C,0.100000*%
%ADD15C,0.500000*%
%ADD16RoundRect,0.200000X0.275000X-0.200000X0.275000X0.200000X-0.275000X0.200000X-0.275000X-0.200000X0*%
%ADD17RoundRect,0.225000X-0.225000X-0.250000X0.225000X-0.250000X0.225000X0.250000X-0.225000X0.250000X0*%
%ADD18RoundRect,0.225000X-0.335876X-0.017678X-0.017678X-0.335876X0.335876X0.017678X0.017678X0.335876X0*%
%ADD19RoundRect,0.218750X0.218750X0.381250X-0.218750X0.381250X-0.218750X-0.381250X0.218750X-0.381250X0*%
%ADD20RoundRect,0.225000X0.017678X-0.335876X0.335876X-0.017678X-0.017678X0.335876X-0.335876X0.017678X0*%
%ADD21RoundRect,0.250000X-0.250000X-0.475000X0.250000X-0.475000X0.250000X0.475000X-0.250000X0.475000X0*%
%ADD22RoundRect,0.218750X0.381250X-0.218750X0.381250X0.218750X-0.381250X0.218750X-0.381250X-0.218750X0*%
%ADD23R,1.200000X1.400000*%
%ADD24RoundRect,0.225000X0.250000X-0.225000X0.250000X0.225000X-0.250000X0.225000X-0.250000X-0.225000X0*%
%ADD25R,4.800000X1.200000*%
%ADD26RoundRect,0.125000X-0.225000X0.125000X-0.225000X-0.125000X0.225000X-0.125000X0.225000X0.125000X0*%
%ADD27RoundRect,0.200000X-0.275000X0.200000X-0.275000X-0.200000X0.275000X-0.200000X0.275000X0.200000X0*%
%ADD28C,0.650000*%
%ADD29R,1.150000X0.600000*%
%ADD30R,1.150000X0.300000*%
%ADD31O,2.100000X1.000000*%
%ADD32O,1.800000X1.000000*%
%ADD33RoundRect,0.225000X-0.250000X0.225000X-0.250000X-0.225000X0.250000X-0.225000X0.250000X0.225000X0*%
%ADD34FreePoly0,135.000000*%
%ADD35RoundRect,0.200000X0.200000X0.275000X-0.200000X0.275000X-0.200000X-0.275000X0.200000X-0.275000X0*%
%ADD36R,1.000000X1.700000*%
%ADD37RoundRect,0.250000X0.475000X-0.250000X0.475000X0.250000X-0.475000X0.250000X-0.475000X-0.250000X0*%
%ADD38RoundRect,0.218750X-0.218750X-0.256250X0.218750X-0.256250X0.218750X0.256250X-0.218750X0.256250X0*%
%ADD39R,0.600000X1.070000*%
%ADD40RoundRect,0.200000X-0.200000X-0.275000X0.200000X-0.275000X0.200000X0.275000X-0.200000X0.275000X0*%
%ADD41RoundRect,0.225000X0.225000X0.250000X-0.225000X0.250000X-0.225000X-0.250000X0.225000X-0.250000X0*%
%ADD42R,1.700000X1.700000*%
%ADD43O,1.700000X1.700000*%
%ADD44RoundRect,0.125000X-0.070711X0.247487X-0.247487X0.070711X0.070711X-0.247487X0.247487X-0.070711X0*%
%ADD45RoundRect,0.200000X-0.335876X-0.053033X-0.053033X-0.335876X0.335876X0.053033X0.053033X0.335876X0*%
%ADD46RoundRect,0.125000X0.070711X-0.247487X0.247487X-0.070711X-0.070711X0.247487X-0.247487X0.070711X0*%
%ADD47RoundRect,0.062500X0.220971X0.309359X-0.309359X-0.220971X-0.220971X-0.309359X0.309359X0.220971X0*%
%ADD48RoundRect,0.062500X-0.220971X0.309359X-0.309359X0.220971X0.220971X-0.309359X0.309359X-0.220971X0*%
%ADD49RotRect,5.600000X5.600000X225.000000*%
%ADD50RoundRect,0.087500X-0.725000X-0.087500X0.725000X-0.087500X0.725000X0.087500X-0.725000X0.087500X0*%
%ADD51R,1.070000X0.600000*%
%ADD52RoundRect,0.243750X-0.243750X-0.456250X0.243750X-0.456250X0.243750X0.456250X-0.243750X0.456250X0*%
%ADD53RoundRect,0.250000X-0.475000X0.250000X-0.475000X-0.250000X0.475000X-0.250000X0.475000X0.250000X0*%
G04 APERTURE END LIST*
D10*
X155778571Y-117627409D02*
X155611905Y-117389314D01*
X155492857Y-117627409D02*
X155492857Y-117127409D01*
X155492857Y-117127409D02*
X155683333Y-117127409D01*
X155683333Y-117127409D02*
X155730952Y-117151219D01*
X155730952Y-117151219D02*
X155754762Y-117175028D01*
X155754762Y-117175028D02*
X155778571Y-117222647D01*
X155778571Y-117222647D02*
X155778571Y-117294076D01*
X155778571Y-117294076D02*
X155754762Y-117341695D01*
X155754762Y-117341695D02*
X155730952Y-117365504D01*
X155730952Y-117365504D02*
X155683333Y-117389314D01*
X155683333Y-117389314D02*
X155492857Y-117389314D01*
X156254762Y-117627409D02*
X155969048Y-117627409D01*
X156111905Y-117627409D02*
X156111905Y-117127409D01*
X156111905Y-117127409D02*
X156064286Y-117198838D01*
X156064286Y-117198838D02*
X156016667Y-117246457D01*
X156016667Y-117246457D02*
X155969048Y-117270266D01*
X156421428Y-117127409D02*
X156754761Y-117127409D01*
X156754761Y-117127409D02*
X156540476Y-117627409D01*
X169028571Y-115079790D02*
X169004762Y-115103600D01*
X169004762Y-115103600D02*
X168933333Y-115127409D01*
X168933333Y-115127409D02*
X168885714Y-115127409D01*
X168885714Y-115127409D02*
X168814286Y-115103600D01*
X168814286Y-115103600D02*
X168766667Y-115055980D01*
X168766667Y-115055980D02*
X168742857Y-115008361D01*
X168742857Y-115008361D02*
X168719048Y-114913123D01*
X168719048Y-114913123D02*
X168719048Y-114841695D01*
X168719048Y-114841695D02*
X168742857Y-114746457D01*
X168742857Y-114746457D02*
X168766667Y-114698838D01*
X168766667Y-114698838D02*
X168814286Y-114651219D01*
X168814286Y-114651219D02*
X168885714Y-114627409D01*
X168885714Y-114627409D02*
X168933333Y-114627409D01*
X168933333Y-114627409D02*
X169004762Y-114651219D01*
X169004762Y-114651219D02*
X169028571Y-114675028D01*
X169219048Y-114675028D02*
X169242857Y-114651219D01*
X169242857Y-114651219D02*
X169290476Y-114627409D01*
X169290476Y-114627409D02*
X169409524Y-114627409D01*
X169409524Y-114627409D02*
X169457143Y-114651219D01*
X169457143Y-114651219D02*
X169480952Y-114675028D01*
X169480952Y-114675028D02*
X169504762Y-114722647D01*
X169504762Y-114722647D02*
X169504762Y-114770266D01*
X169504762Y-114770266D02*
X169480952Y-114841695D01*
X169480952Y-114841695D02*
X169195238Y-115127409D01*
X169195238Y-115127409D02*
X169504762Y-115127409D01*
X169671428Y-114627409D02*
X170004761Y-114627409D01*
X170004761Y-114627409D02*
X169790476Y-115127409D01*
X168716666Y-111979790D02*
X168692857Y-112003600D01*
X168692857Y-112003600D02*
X168621428Y-112027409D01*
X168621428Y-112027409D02*
X168573809Y-112027409D01*
X168573809Y-112027409D02*
X168502381Y-112003600D01*
X168502381Y-112003600D02*
X168454762Y-111955980D01*
X168454762Y-111955980D02*
X168430952Y-111908361D01*
X168430952Y-111908361D02*
X168407143Y-111813123D01*
X168407143Y-111813123D02*
X168407143Y-111741695D01*
X168407143Y-111741695D02*
X168430952Y-111646457D01*
X168430952Y-111646457D02*
X168454762Y-111598838D01*
X168454762Y-111598838D02*
X168502381Y-111551219D01*
X168502381Y-111551219D02*
X168573809Y-111527409D01*
X168573809Y-111527409D02*
X168621428Y-111527409D01*
X168621428Y-111527409D02*
X168692857Y-111551219D01*
X168692857Y-111551219D02*
X168716666Y-111575028D01*
X168954762Y-112027409D02*
X169050000Y-112027409D01*
X169050000Y-112027409D02*
X169097619Y-112003600D01*
X169097619Y-112003600D02*
X169121428Y-111979790D01*
X169121428Y-111979790D02*
X169169047Y-111908361D01*
X169169047Y-111908361D02*
X169192857Y-111813123D01*
X169192857Y-111813123D02*
X169192857Y-111622647D01*
X169192857Y-111622647D02*
X169169047Y-111575028D01*
X169169047Y-111575028D02*
X169145238Y-111551219D01*
X169145238Y-111551219D02*
X169097619Y-111527409D01*
X169097619Y-111527409D02*
X169002381Y-111527409D01*
X169002381Y-111527409D02*
X168954762Y-111551219D01*
X168954762Y-111551219D02*
X168930952Y-111575028D01*
X168930952Y-111575028D02*
X168907143Y-111622647D01*
X168907143Y-111622647D02*
X168907143Y-111741695D01*
X168907143Y-111741695D02*
X168930952Y-111789314D01*
X168930952Y-111789314D02*
X168954762Y-111813123D01*
X168954762Y-111813123D02*
X169002381Y-111836933D01*
X169002381Y-111836933D02*
X169097619Y-111836933D01*
X169097619Y-111836933D02*
X169145238Y-111813123D01*
X169145238Y-111813123D02*
X169169047Y-111789314D01*
X169169047Y-111789314D02*
X169192857Y-111741695D01*
X167845834Y-116865504D02*
X167679167Y-116865504D01*
X167679167Y-117127409D02*
X167679167Y-116627409D01*
X167679167Y-116627409D02*
X167917262Y-116627409D01*
X168274405Y-116865504D02*
X168345833Y-116889314D01*
X168345833Y-116889314D02*
X168369643Y-116913123D01*
X168369643Y-116913123D02*
X168393452Y-116960742D01*
X168393452Y-116960742D02*
X168393452Y-117032171D01*
X168393452Y-117032171D02*
X168369643Y-117079790D01*
X168369643Y-117079790D02*
X168345833Y-117103600D01*
X168345833Y-117103600D02*
X168298214Y-117127409D01*
X168298214Y-117127409D02*
X168107738Y-117127409D01*
X168107738Y-117127409D02*
X168107738Y-116627409D01*
X168107738Y-116627409D02*
X168274405Y-116627409D01*
X168274405Y-116627409D02*
X168322024Y-116651219D01*
X168322024Y-116651219D02*
X168345833Y-116675028D01*
X168345833Y-116675028D02*
X168369643Y-116722647D01*
X168369643Y-116722647D02*
X168369643Y-116770266D01*
X168369643Y-116770266D02*
X168345833Y-116817885D01*
X168345833Y-116817885D02*
X168322024Y-116841695D01*
X168322024Y-116841695D02*
X168274405Y-116865504D01*
X168274405Y-116865504D02*
X168107738Y-116865504D01*
X168560119Y-116627409D02*
X168869643Y-116627409D01*
X168869643Y-116627409D02*
X168702976Y-116817885D01*
X168702976Y-116817885D02*
X168774405Y-116817885D01*
X168774405Y-116817885D02*
X168822024Y-116841695D01*
X168822024Y-116841695D02*
X168845833Y-116865504D01*
X168845833Y-116865504D02*
X168869643Y-116913123D01*
X168869643Y-116913123D02*
X168869643Y-117032171D01*
X168869643Y-117032171D02*
X168845833Y-117079790D01*
X168845833Y-117079790D02*
X168822024Y-117103600D01*
X168822024Y-117103600D02*
X168774405Y-117127409D01*
X168774405Y-117127409D02*
X168631548Y-117127409D01*
X168631548Y-117127409D02*
X168583929Y-117103600D01*
X168583929Y-117103600D02*
X168560119Y-117079790D01*
X159599847Y-98804415D02*
X159599847Y-98838086D01*
X159599847Y-98838086D02*
X159566175Y-98905430D01*
X159566175Y-98905430D02*
X159532503Y-98939102D01*
X159532503Y-98939102D02*
X159465160Y-98972773D01*
X159465160Y-98972773D02*
X159397816Y-98972773D01*
X159397816Y-98972773D02*
X159347308Y-98955937D01*
X159347308Y-98955937D02*
X159263129Y-98905430D01*
X159263129Y-98905430D02*
X159212621Y-98854922D01*
X159212621Y-98854922D02*
X159162114Y-98770743D01*
X159162114Y-98770743D02*
X159145278Y-98720235D01*
X159145278Y-98720235D02*
X159145278Y-98652892D01*
X159145278Y-98652892D02*
X159178950Y-98585548D01*
X159178950Y-98585548D02*
X159212621Y-98551876D01*
X159212621Y-98551876D02*
X159279965Y-98518205D01*
X159279965Y-98518205D02*
X159313637Y-98518205D01*
X159970236Y-98501369D02*
X159768205Y-98703399D01*
X159869221Y-98602384D02*
X159515667Y-98248831D01*
X159515667Y-98248831D02*
X159532503Y-98333010D01*
X159532503Y-98333010D02*
X159532503Y-98400354D01*
X159532503Y-98400354D02*
X159515667Y-98450861D01*
X159785041Y-98046800D02*
X159785041Y-98013129D01*
X159785041Y-98013129D02*
X159801877Y-97962621D01*
X159801877Y-97962621D02*
X159886056Y-97878442D01*
X159886056Y-97878442D02*
X159936564Y-97861606D01*
X159936564Y-97861606D02*
X159970236Y-97861606D01*
X159970236Y-97861606D02*
X160020743Y-97878442D01*
X160020743Y-97878442D02*
X160054415Y-97912113D01*
X160054415Y-97912113D02*
X160088087Y-97979457D01*
X160088087Y-97979457D02*
X160088087Y-98383518D01*
X160088087Y-98383518D02*
X160306953Y-98164652D01*
X176478571Y-104479790D02*
X176454762Y-104503600D01*
X176454762Y-104503600D02*
X176383333Y-104527409D01*
X176383333Y-104527409D02*
X176335714Y-104527409D01*
X176335714Y-104527409D02*
X176264286Y-104503600D01*
X176264286Y-104503600D02*
X176216667Y-104455980D01*
X176216667Y-104455980D02*
X176192857Y-104408361D01*
X176192857Y-104408361D02*
X176169048Y-104313123D01*
X176169048Y-104313123D02*
X176169048Y-104241695D01*
X176169048Y-104241695D02*
X176192857Y-104146457D01*
X176192857Y-104146457D02*
X176216667Y-104098838D01*
X176216667Y-104098838D02*
X176264286Y-104051219D01*
X176264286Y-104051219D02*
X176335714Y-104027409D01*
X176335714Y-104027409D02*
X176383333Y-104027409D01*
X176383333Y-104027409D02*
X176454762Y-104051219D01*
X176454762Y-104051219D02*
X176478571Y-104075028D01*
X176669048Y-104075028D02*
X176692857Y-104051219D01*
X176692857Y-104051219D02*
X176740476Y-104027409D01*
X176740476Y-104027409D02*
X176859524Y-104027409D01*
X176859524Y-104027409D02*
X176907143Y-104051219D01*
X176907143Y-104051219D02*
X176930952Y-104075028D01*
X176930952Y-104075028D02*
X176954762Y-104122647D01*
X176954762Y-104122647D02*
X176954762Y-104170266D01*
X176954762Y-104170266D02*
X176930952Y-104241695D01*
X176930952Y-104241695D02*
X176645238Y-104527409D01*
X176645238Y-104527409D02*
X176954762Y-104527409D01*
X177121428Y-104027409D02*
X177430952Y-104027409D01*
X177430952Y-104027409D02*
X177264285Y-104217885D01*
X177264285Y-104217885D02*
X177335714Y-104217885D01*
X177335714Y-104217885D02*
X177383333Y-104241695D01*
X177383333Y-104241695D02*
X177407142Y-104265504D01*
X177407142Y-104265504D02*
X177430952Y-104313123D01*
X177430952Y-104313123D02*
X177430952Y-104432171D01*
X177430952Y-104432171D02*
X177407142Y-104479790D01*
X177407142Y-104479790D02*
X177383333Y-104503600D01*
X177383333Y-104503600D02*
X177335714Y-104527409D01*
X177335714Y-104527409D02*
X177192857Y-104527409D01*
X177192857Y-104527409D02*
X177145238Y-104503600D01*
X177145238Y-104503600D02*
X177121428Y-104479790D01*
X147427409Y-84783333D02*
X147427409Y-85021428D01*
X147427409Y-85021428D02*
X146927409Y-85021428D01*
X147427409Y-84354761D02*
X147427409Y-84640475D01*
X147427409Y-84497618D02*
X146927409Y-84497618D01*
X146927409Y-84497618D02*
X146998838Y-84545237D01*
X146998838Y-84545237D02*
X147046457Y-84592856D01*
X147046457Y-84592856D02*
X147070266Y-84640475D01*
X174303571Y-98979790D02*
X174279762Y-99003600D01*
X174279762Y-99003600D02*
X174208333Y-99027409D01*
X174208333Y-99027409D02*
X174160714Y-99027409D01*
X174160714Y-99027409D02*
X174089286Y-99003600D01*
X174089286Y-99003600D02*
X174041667Y-98955980D01*
X174041667Y-98955980D02*
X174017857Y-98908361D01*
X174017857Y-98908361D02*
X173994048Y-98813123D01*
X173994048Y-98813123D02*
X173994048Y-98741695D01*
X173994048Y-98741695D02*
X174017857Y-98646457D01*
X174017857Y-98646457D02*
X174041667Y-98598838D01*
X174041667Y-98598838D02*
X174089286Y-98551219D01*
X174089286Y-98551219D02*
X174160714Y-98527409D01*
X174160714Y-98527409D02*
X174208333Y-98527409D01*
X174208333Y-98527409D02*
X174279762Y-98551219D01*
X174279762Y-98551219D02*
X174303571Y-98575028D01*
X174779762Y-99027409D02*
X174494048Y-99027409D01*
X174636905Y-99027409D02*
X174636905Y-98527409D01*
X174636905Y-98527409D02*
X174589286Y-98598838D01*
X174589286Y-98598838D02*
X174541667Y-98646457D01*
X174541667Y-98646457D02*
X174494048Y-98670266D01*
X175232142Y-98527409D02*
X174994047Y-98527409D01*
X174994047Y-98527409D02*
X174970238Y-98765504D01*
X174970238Y-98765504D02*
X174994047Y-98741695D01*
X174994047Y-98741695D02*
X175041666Y-98717885D01*
X175041666Y-98717885D02*
X175160714Y-98717885D01*
X175160714Y-98717885D02*
X175208333Y-98741695D01*
X175208333Y-98741695D02*
X175232142Y-98765504D01*
X175232142Y-98765504D02*
X175255952Y-98813123D01*
X175255952Y-98813123D02*
X175255952Y-98932171D01*
X175255952Y-98932171D02*
X175232142Y-98979790D01*
X175232142Y-98979790D02*
X175208333Y-99003600D01*
X175208333Y-99003600D02*
X175160714Y-99027409D01*
X175160714Y-99027409D02*
X175041666Y-99027409D01*
X175041666Y-99027409D02*
X174994047Y-99003600D01*
X174994047Y-99003600D02*
X174970238Y-98979790D01*
X161027409Y-105583333D02*
X160789314Y-105749999D01*
X161027409Y-105869047D02*
X160527409Y-105869047D01*
X160527409Y-105869047D02*
X160527409Y-105678571D01*
X160527409Y-105678571D02*
X160551219Y-105630952D01*
X160551219Y-105630952D02*
X160575028Y-105607142D01*
X160575028Y-105607142D02*
X160622647Y-105583333D01*
X160622647Y-105583333D02*
X160694076Y-105583333D01*
X160694076Y-105583333D02*
X160741695Y-105607142D01*
X160741695Y-105607142D02*
X160765504Y-105630952D01*
X160765504Y-105630952D02*
X160789314Y-105678571D01*
X160789314Y-105678571D02*
X160789314Y-105869047D01*
X160527409Y-105416666D02*
X160527409Y-105083333D01*
X160527409Y-105083333D02*
X161027409Y-105297618D01*
X169595238Y-92477409D02*
X169928571Y-92977409D01*
X169928571Y-92477409D02*
X169595238Y-92977409D01*
X170380952Y-92977409D02*
X170095238Y-92977409D01*
X170238095Y-92977409D02*
X170238095Y-92477409D01*
X170238095Y-92477409D02*
X170190476Y-92548838D01*
X170190476Y-92548838D02*
X170142857Y-92596457D01*
X170142857Y-92596457D02*
X170095238Y-92620266D01*
X158429790Y-107083333D02*
X158453600Y-107107142D01*
X158453600Y-107107142D02*
X158477409Y-107178571D01*
X158477409Y-107178571D02*
X158477409Y-107226190D01*
X158477409Y-107226190D02*
X158453600Y-107297618D01*
X158453600Y-107297618D02*
X158405980Y-107345237D01*
X158405980Y-107345237D02*
X158358361Y-107369047D01*
X158358361Y-107369047D02*
X158263123Y-107392856D01*
X158263123Y-107392856D02*
X158191695Y-107392856D01*
X158191695Y-107392856D02*
X158096457Y-107369047D01*
X158096457Y-107369047D02*
X158048838Y-107345237D01*
X158048838Y-107345237D02*
X158001219Y-107297618D01*
X158001219Y-107297618D02*
X157977409Y-107226190D01*
X157977409Y-107226190D02*
X157977409Y-107178571D01*
X157977409Y-107178571D02*
X158001219Y-107107142D01*
X158001219Y-107107142D02*
X158025028Y-107083333D01*
X158191695Y-106797618D02*
X158167885Y-106845237D01*
X158167885Y-106845237D02*
X158144076Y-106869047D01*
X158144076Y-106869047D02*
X158096457Y-106892856D01*
X158096457Y-106892856D02*
X158072647Y-106892856D01*
X158072647Y-106892856D02*
X158025028Y-106869047D01*
X158025028Y-106869047D02*
X158001219Y-106845237D01*
X158001219Y-106845237D02*
X157977409Y-106797618D01*
X157977409Y-106797618D02*
X157977409Y-106702380D01*
X157977409Y-106702380D02*
X158001219Y-106654761D01*
X158001219Y-106654761D02*
X158025028Y-106630952D01*
X158025028Y-106630952D02*
X158072647Y-106607142D01*
X158072647Y-106607142D02*
X158096457Y-106607142D01*
X158096457Y-106607142D02*
X158144076Y-106630952D01*
X158144076Y-106630952D02*
X158167885Y-106654761D01*
X158167885Y-106654761D02*
X158191695Y-106702380D01*
X158191695Y-106702380D02*
X158191695Y-106797618D01*
X158191695Y-106797618D02*
X158215504Y-106845237D01*
X158215504Y-106845237D02*
X158239314Y-106869047D01*
X158239314Y-106869047D02*
X158286933Y-106892856D01*
X158286933Y-106892856D02*
X158382171Y-106892856D01*
X158382171Y-106892856D02*
X158429790Y-106869047D01*
X158429790Y-106869047D02*
X158453600Y-106845237D01*
X158453600Y-106845237D02*
X158477409Y-106797618D01*
X158477409Y-106797618D02*
X158477409Y-106702380D01*
X158477409Y-106702380D02*
X158453600Y-106654761D01*
X158453600Y-106654761D02*
X158429790Y-106630952D01*
X158429790Y-106630952D02*
X158382171Y-106607142D01*
X158382171Y-106607142D02*
X158286933Y-106607142D01*
X158286933Y-106607142D02*
X158239314Y-106630952D01*
X158239314Y-106630952D02*
X158215504Y-106654761D01*
X158215504Y-106654761D02*
X158191695Y-106702380D01*
X142633333Y-93327409D02*
X142633333Y-93684552D01*
X142633333Y-93684552D02*
X142609524Y-93755980D01*
X142609524Y-93755980D02*
X142561905Y-93803600D01*
X142561905Y-93803600D02*
X142490476Y-93827409D01*
X142490476Y-93827409D02*
X142442857Y-93827409D01*
X142942857Y-93541695D02*
X142895238Y-93517885D01*
X142895238Y-93517885D02*
X142871428Y-93494076D01*
X142871428Y-93494076D02*
X142847619Y-93446457D01*
X142847619Y-93446457D02*
X142847619Y-93422647D01*
X142847619Y-93422647D02*
X142871428Y-93375028D01*
X142871428Y-93375028D02*
X142895238Y-93351219D01*
X142895238Y-93351219D02*
X142942857Y-93327409D01*
X142942857Y-93327409D02*
X143038095Y-93327409D01*
X143038095Y-93327409D02*
X143085714Y-93351219D01*
X143085714Y-93351219D02*
X143109523Y-93375028D01*
X143109523Y-93375028D02*
X143133333Y-93422647D01*
X143133333Y-93422647D02*
X143133333Y-93446457D01*
X143133333Y-93446457D02*
X143109523Y-93494076D01*
X143109523Y-93494076D02*
X143085714Y-93517885D01*
X143085714Y-93517885D02*
X143038095Y-93541695D01*
X143038095Y-93541695D02*
X142942857Y-93541695D01*
X142942857Y-93541695D02*
X142895238Y-93565504D01*
X142895238Y-93565504D02*
X142871428Y-93589314D01*
X142871428Y-93589314D02*
X142847619Y-93636933D01*
X142847619Y-93636933D02*
X142847619Y-93732171D01*
X142847619Y-93732171D02*
X142871428Y-93779790D01*
X142871428Y-93779790D02*
X142895238Y-93803600D01*
X142895238Y-93803600D02*
X142942857Y-93827409D01*
X142942857Y-93827409D02*
X143038095Y-93827409D01*
X143038095Y-93827409D02*
X143085714Y-93803600D01*
X143085714Y-93803600D02*
X143109523Y-93779790D01*
X143109523Y-93779790D02*
X143133333Y-93732171D01*
X143133333Y-93732171D02*
X143133333Y-93636933D01*
X143133333Y-93636933D02*
X143109523Y-93589314D01*
X143109523Y-93589314D02*
X143085714Y-93565504D01*
X143085714Y-93565504D02*
X143038095Y-93541695D01*
X149666666Y-103829790D02*
X149642857Y-103853600D01*
X149642857Y-103853600D02*
X149571428Y-103877409D01*
X149571428Y-103877409D02*
X149523809Y-103877409D01*
X149523809Y-103877409D02*
X149452381Y-103853600D01*
X149452381Y-103853600D02*
X149404762Y-103805980D01*
X149404762Y-103805980D02*
X149380952Y-103758361D01*
X149380952Y-103758361D02*
X149357143Y-103663123D01*
X149357143Y-103663123D02*
X149357143Y-103591695D01*
X149357143Y-103591695D02*
X149380952Y-103496457D01*
X149380952Y-103496457D02*
X149404762Y-103448838D01*
X149404762Y-103448838D02*
X149452381Y-103401219D01*
X149452381Y-103401219D02*
X149523809Y-103377409D01*
X149523809Y-103377409D02*
X149571428Y-103377409D01*
X149571428Y-103377409D02*
X149642857Y-103401219D01*
X149642857Y-103401219D02*
X149666666Y-103425028D01*
X149833333Y-103377409D02*
X150142857Y-103377409D01*
X150142857Y-103377409D02*
X149976190Y-103567885D01*
X149976190Y-103567885D02*
X150047619Y-103567885D01*
X150047619Y-103567885D02*
X150095238Y-103591695D01*
X150095238Y-103591695D02*
X150119047Y-103615504D01*
X150119047Y-103615504D02*
X150142857Y-103663123D01*
X150142857Y-103663123D02*
X150142857Y-103782171D01*
X150142857Y-103782171D02*
X150119047Y-103829790D01*
X150119047Y-103829790D02*
X150095238Y-103853600D01*
X150095238Y-103853600D02*
X150047619Y-103877409D01*
X150047619Y-103877409D02*
X149904762Y-103877409D01*
X149904762Y-103877409D02*
X149857143Y-103853600D01*
X149857143Y-103853600D02*
X149833333Y-103829790D01*
X165177409Y-105821428D02*
X164939314Y-105988094D01*
X165177409Y-106107142D02*
X164677409Y-106107142D01*
X164677409Y-106107142D02*
X164677409Y-105916666D01*
X164677409Y-105916666D02*
X164701219Y-105869047D01*
X164701219Y-105869047D02*
X164725028Y-105845237D01*
X164725028Y-105845237D02*
X164772647Y-105821428D01*
X164772647Y-105821428D02*
X164844076Y-105821428D01*
X164844076Y-105821428D02*
X164891695Y-105845237D01*
X164891695Y-105845237D02*
X164915504Y-105869047D01*
X164915504Y-105869047D02*
X164939314Y-105916666D01*
X164939314Y-105916666D02*
X164939314Y-106107142D01*
X165177409Y-105345237D02*
X165177409Y-105630951D01*
X165177409Y-105488094D02*
X164677409Y-105488094D01*
X164677409Y-105488094D02*
X164748838Y-105535713D01*
X164748838Y-105535713D02*
X164796457Y-105583332D01*
X164796457Y-105583332D02*
X164820266Y-105630951D01*
X164891695Y-105059523D02*
X164867885Y-105107142D01*
X164867885Y-105107142D02*
X164844076Y-105130952D01*
X164844076Y-105130952D02*
X164796457Y-105154761D01*
X164796457Y-105154761D02*
X164772647Y-105154761D01*
X164772647Y-105154761D02*
X164725028Y-105130952D01*
X164725028Y-105130952D02*
X164701219Y-105107142D01*
X164701219Y-105107142D02*
X164677409Y-105059523D01*
X164677409Y-105059523D02*
X164677409Y-104964285D01*
X164677409Y-104964285D02*
X164701219Y-104916666D01*
X164701219Y-104916666D02*
X164725028Y-104892857D01*
X164725028Y-104892857D02*
X164772647Y-104869047D01*
X164772647Y-104869047D02*
X164796457Y-104869047D01*
X164796457Y-104869047D02*
X164844076Y-104892857D01*
X164844076Y-104892857D02*
X164867885Y-104916666D01*
X164867885Y-104916666D02*
X164891695Y-104964285D01*
X164891695Y-104964285D02*
X164891695Y-105059523D01*
X164891695Y-105059523D02*
X164915504Y-105107142D01*
X164915504Y-105107142D02*
X164939314Y-105130952D01*
X164939314Y-105130952D02*
X164986933Y-105154761D01*
X164986933Y-105154761D02*
X165082171Y-105154761D01*
X165082171Y-105154761D02*
X165129790Y-105130952D01*
X165129790Y-105130952D02*
X165153600Y-105107142D01*
X165153600Y-105107142D02*
X165177409Y-105059523D01*
X165177409Y-105059523D02*
X165177409Y-104964285D01*
X165177409Y-104964285D02*
X165153600Y-104916666D01*
X165153600Y-104916666D02*
X165129790Y-104892857D01*
X165129790Y-104892857D02*
X165082171Y-104869047D01*
X165082171Y-104869047D02*
X164986933Y-104869047D01*
X164986933Y-104869047D02*
X164939314Y-104892857D01*
X164939314Y-104892857D02*
X164915504Y-104916666D01*
X164915504Y-104916666D02*
X164891695Y-104964285D01*
X151077409Y-109019047D02*
X150577409Y-109019047D01*
X150577409Y-109019047D02*
X150577409Y-108899999D01*
X150577409Y-108899999D02*
X150601219Y-108828571D01*
X150601219Y-108828571D02*
X150648838Y-108780952D01*
X150648838Y-108780952D02*
X150696457Y-108757142D01*
X150696457Y-108757142D02*
X150791695Y-108733333D01*
X150791695Y-108733333D02*
X150863123Y-108733333D01*
X150863123Y-108733333D02*
X150958361Y-108757142D01*
X150958361Y-108757142D02*
X151005980Y-108780952D01*
X151005980Y-108780952D02*
X151053600Y-108828571D01*
X151053600Y-108828571D02*
X151077409Y-108899999D01*
X151077409Y-108899999D02*
X151077409Y-109019047D01*
X150577409Y-108566666D02*
X150577409Y-108257142D01*
X150577409Y-108257142D02*
X150767885Y-108423809D01*
X150767885Y-108423809D02*
X150767885Y-108352380D01*
X150767885Y-108352380D02*
X150791695Y-108304761D01*
X150791695Y-108304761D02*
X150815504Y-108280952D01*
X150815504Y-108280952D02*
X150863123Y-108257142D01*
X150863123Y-108257142D02*
X150982171Y-108257142D01*
X150982171Y-108257142D02*
X151029790Y-108280952D01*
X151029790Y-108280952D02*
X151053600Y-108304761D01*
X151053600Y-108304761D02*
X151077409Y-108352380D01*
X151077409Y-108352380D02*
X151077409Y-108495237D01*
X151077409Y-108495237D02*
X151053600Y-108542856D01*
X151053600Y-108542856D02*
X151029790Y-108566666D01*
X158429790Y-104033333D02*
X158453600Y-104057142D01*
X158453600Y-104057142D02*
X158477409Y-104128571D01*
X158477409Y-104128571D02*
X158477409Y-104176190D01*
X158477409Y-104176190D02*
X158453600Y-104247618D01*
X158453600Y-104247618D02*
X158405980Y-104295237D01*
X158405980Y-104295237D02*
X158358361Y-104319047D01*
X158358361Y-104319047D02*
X158263123Y-104342856D01*
X158263123Y-104342856D02*
X158191695Y-104342856D01*
X158191695Y-104342856D02*
X158096457Y-104319047D01*
X158096457Y-104319047D02*
X158048838Y-104295237D01*
X158048838Y-104295237D02*
X158001219Y-104247618D01*
X158001219Y-104247618D02*
X157977409Y-104176190D01*
X157977409Y-104176190D02*
X157977409Y-104128571D01*
X157977409Y-104128571D02*
X158001219Y-104057142D01*
X158001219Y-104057142D02*
X158025028Y-104033333D01*
X157977409Y-103604761D02*
X157977409Y-103699999D01*
X157977409Y-103699999D02*
X158001219Y-103747618D01*
X158001219Y-103747618D02*
X158025028Y-103771428D01*
X158025028Y-103771428D02*
X158096457Y-103819047D01*
X158096457Y-103819047D02*
X158191695Y-103842856D01*
X158191695Y-103842856D02*
X158382171Y-103842856D01*
X158382171Y-103842856D02*
X158429790Y-103819047D01*
X158429790Y-103819047D02*
X158453600Y-103795237D01*
X158453600Y-103795237D02*
X158477409Y-103747618D01*
X158477409Y-103747618D02*
X158477409Y-103652380D01*
X158477409Y-103652380D02*
X158453600Y-103604761D01*
X158453600Y-103604761D02*
X158429790Y-103580952D01*
X158429790Y-103580952D02*
X158382171Y-103557142D01*
X158382171Y-103557142D02*
X158263123Y-103557142D01*
X158263123Y-103557142D02*
X158215504Y-103580952D01*
X158215504Y-103580952D02*
X158191695Y-103604761D01*
X158191695Y-103604761D02*
X158167885Y-103652380D01*
X158167885Y-103652380D02*
X158167885Y-103747618D01*
X158167885Y-103747618D02*
X158191695Y-103795237D01*
X158191695Y-103795237D02*
X158215504Y-103819047D01*
X158215504Y-103819047D02*
X158263123Y-103842856D01*
X152578571Y-117627409D02*
X152411905Y-117389314D01*
X152292857Y-117627409D02*
X152292857Y-117127409D01*
X152292857Y-117127409D02*
X152483333Y-117127409D01*
X152483333Y-117127409D02*
X152530952Y-117151219D01*
X152530952Y-117151219D02*
X152554762Y-117175028D01*
X152554762Y-117175028D02*
X152578571Y-117222647D01*
X152578571Y-117222647D02*
X152578571Y-117294076D01*
X152578571Y-117294076D02*
X152554762Y-117341695D01*
X152554762Y-117341695D02*
X152530952Y-117365504D01*
X152530952Y-117365504D02*
X152483333Y-117389314D01*
X152483333Y-117389314D02*
X152292857Y-117389314D01*
X153054762Y-117627409D02*
X152769048Y-117627409D01*
X152911905Y-117627409D02*
X152911905Y-117127409D01*
X152911905Y-117127409D02*
X152864286Y-117198838D01*
X152864286Y-117198838D02*
X152816667Y-117246457D01*
X152816667Y-117246457D02*
X152769048Y-117270266D01*
X153221428Y-117127409D02*
X153530952Y-117127409D01*
X153530952Y-117127409D02*
X153364285Y-117317885D01*
X153364285Y-117317885D02*
X153435714Y-117317885D01*
X153435714Y-117317885D02*
X153483333Y-117341695D01*
X153483333Y-117341695D02*
X153507142Y-117365504D01*
X153507142Y-117365504D02*
X153530952Y-117413123D01*
X153530952Y-117413123D02*
X153530952Y-117532171D01*
X153530952Y-117532171D02*
X153507142Y-117579790D01*
X153507142Y-117579790D02*
X153483333Y-117603600D01*
X153483333Y-117603600D02*
X153435714Y-117627409D01*
X153435714Y-117627409D02*
X153292857Y-117627409D01*
X153292857Y-117627409D02*
X153245238Y-117603600D01*
X153245238Y-117603600D02*
X153221428Y-117579790D01*
X164895584Y-115149847D02*
X164861913Y-115149847D01*
X164861913Y-115149847D02*
X164794569Y-115116175D01*
X164794569Y-115116175D02*
X164760897Y-115082503D01*
X164760897Y-115082503D02*
X164727226Y-115015160D01*
X164727226Y-115015160D02*
X164727226Y-114947816D01*
X164727226Y-114947816D02*
X164744062Y-114897308D01*
X164744062Y-114897308D02*
X164794569Y-114813129D01*
X164794569Y-114813129D02*
X164845077Y-114762621D01*
X164845077Y-114762621D02*
X164929256Y-114712114D01*
X164929256Y-114712114D02*
X164979764Y-114695278D01*
X164979764Y-114695278D02*
X165047107Y-114695278D01*
X165047107Y-114695278D02*
X165114451Y-114728950D01*
X165114451Y-114728950D02*
X165148123Y-114762621D01*
X165148123Y-114762621D02*
X165181794Y-114829965D01*
X165181794Y-114829965D02*
X165181794Y-114863637D01*
X165198630Y-115520236D02*
X164996600Y-115318205D01*
X165097615Y-115419221D02*
X165451168Y-115065667D01*
X165451168Y-115065667D02*
X165366989Y-115082503D01*
X165366989Y-115082503D02*
X165299645Y-115082503D01*
X165299645Y-115082503D02*
X165249138Y-115065667D01*
X165771050Y-115385549D02*
X165804721Y-115419220D01*
X165804721Y-115419220D02*
X165821557Y-115469728D01*
X165821557Y-115469728D02*
X165821557Y-115503400D01*
X165821557Y-115503400D02*
X165804721Y-115553907D01*
X165804721Y-115553907D02*
X165754214Y-115638087D01*
X165754214Y-115638087D02*
X165670034Y-115722266D01*
X165670034Y-115722266D02*
X165585855Y-115772774D01*
X165585855Y-115772774D02*
X165535347Y-115789610D01*
X165535347Y-115789610D02*
X165501676Y-115789610D01*
X165501676Y-115789610D02*
X165451168Y-115772774D01*
X165451168Y-115772774D02*
X165417496Y-115739102D01*
X165417496Y-115739102D02*
X165400660Y-115688594D01*
X165400660Y-115688594D02*
X165400660Y-115654923D01*
X165400660Y-115654923D02*
X165417496Y-115604415D01*
X165417496Y-115604415D02*
X165468004Y-115520236D01*
X165468004Y-115520236D02*
X165552183Y-115436056D01*
X165552183Y-115436056D02*
X165636363Y-115385549D01*
X165636363Y-115385549D02*
X165686870Y-115368713D01*
X165686870Y-115368713D02*
X165720542Y-115368713D01*
X165720542Y-115368713D02*
X165771050Y-115385549D01*
X165727409Y-93571428D02*
X165489314Y-93738094D01*
X165727409Y-93857142D02*
X165227409Y-93857142D01*
X165227409Y-93857142D02*
X165227409Y-93666666D01*
X165227409Y-93666666D02*
X165251219Y-93619047D01*
X165251219Y-93619047D02*
X165275028Y-93595237D01*
X165275028Y-93595237D02*
X165322647Y-93571428D01*
X165322647Y-93571428D02*
X165394076Y-93571428D01*
X165394076Y-93571428D02*
X165441695Y-93595237D01*
X165441695Y-93595237D02*
X165465504Y-93619047D01*
X165465504Y-93619047D02*
X165489314Y-93666666D01*
X165489314Y-93666666D02*
X165489314Y-93857142D01*
X165727409Y-93095237D02*
X165727409Y-93380951D01*
X165727409Y-93238094D02*
X165227409Y-93238094D01*
X165227409Y-93238094D02*
X165298838Y-93285713D01*
X165298838Y-93285713D02*
X165346457Y-93333332D01*
X165346457Y-93333332D02*
X165370266Y-93380951D01*
X165227409Y-92785714D02*
X165227409Y-92738095D01*
X165227409Y-92738095D02*
X165251219Y-92690476D01*
X165251219Y-92690476D02*
X165275028Y-92666666D01*
X165275028Y-92666666D02*
X165322647Y-92642857D01*
X165322647Y-92642857D02*
X165417885Y-92619047D01*
X165417885Y-92619047D02*
X165536933Y-92619047D01*
X165536933Y-92619047D02*
X165632171Y-92642857D01*
X165632171Y-92642857D02*
X165679790Y-92666666D01*
X165679790Y-92666666D02*
X165703600Y-92690476D01*
X165703600Y-92690476D02*
X165727409Y-92738095D01*
X165727409Y-92738095D02*
X165727409Y-92785714D01*
X165727409Y-92785714D02*
X165703600Y-92833333D01*
X165703600Y-92833333D02*
X165679790Y-92857142D01*
X165679790Y-92857142D02*
X165632171Y-92880952D01*
X165632171Y-92880952D02*
X165536933Y-92904761D01*
X165536933Y-92904761D02*
X165417885Y-92904761D01*
X165417885Y-92904761D02*
X165322647Y-92880952D01*
X165322647Y-92880952D02*
X165275028Y-92857142D01*
X165275028Y-92857142D02*
X165251219Y-92833333D01*
X165251219Y-92833333D02*
X165227409Y-92785714D01*
X147127409Y-114966666D02*
X147484552Y-114966666D01*
X147484552Y-114966666D02*
X147555980Y-114990475D01*
X147555980Y-114990475D02*
X147603600Y-115038094D01*
X147603600Y-115038094D02*
X147627409Y-115109523D01*
X147627409Y-115109523D02*
X147627409Y-115157142D01*
X147127409Y-114490476D02*
X147127409Y-114728571D01*
X147127409Y-114728571D02*
X147365504Y-114752380D01*
X147365504Y-114752380D02*
X147341695Y-114728571D01*
X147341695Y-114728571D02*
X147317885Y-114680952D01*
X147317885Y-114680952D02*
X147317885Y-114561904D01*
X147317885Y-114561904D02*
X147341695Y-114514285D01*
X147341695Y-114514285D02*
X147365504Y-114490476D01*
X147365504Y-114490476D02*
X147413123Y-114466666D01*
X147413123Y-114466666D02*
X147532171Y-114466666D01*
X147532171Y-114466666D02*
X147579790Y-114490476D01*
X147579790Y-114490476D02*
X147603600Y-114514285D01*
X147603600Y-114514285D02*
X147627409Y-114561904D01*
X147627409Y-114561904D02*
X147627409Y-114680952D01*
X147627409Y-114680952D02*
X147603600Y-114728571D01*
X147603600Y-114728571D02*
X147579790Y-114752380D01*
X176078571Y-106373123D02*
X176054762Y-106396933D01*
X176054762Y-106396933D02*
X175983333Y-106420742D01*
X175983333Y-106420742D02*
X175935714Y-106420742D01*
X175935714Y-106420742D02*
X175864286Y-106396933D01*
X175864286Y-106396933D02*
X175816667Y-106349313D01*
X175816667Y-106349313D02*
X175792857Y-106301694D01*
X175792857Y-106301694D02*
X175769048Y-106206456D01*
X175769048Y-106206456D02*
X175769048Y-106135028D01*
X175769048Y-106135028D02*
X175792857Y-106039790D01*
X175792857Y-106039790D02*
X175816667Y-105992171D01*
X175816667Y-105992171D02*
X175864286Y-105944552D01*
X175864286Y-105944552D02*
X175935714Y-105920742D01*
X175935714Y-105920742D02*
X175983333Y-105920742D01*
X175983333Y-105920742D02*
X176054762Y-105944552D01*
X176054762Y-105944552D02*
X176078571Y-105968361D01*
X176269048Y-105968361D02*
X176292857Y-105944552D01*
X176292857Y-105944552D02*
X176340476Y-105920742D01*
X176340476Y-105920742D02*
X176459524Y-105920742D01*
X176459524Y-105920742D02*
X176507143Y-105944552D01*
X176507143Y-105944552D02*
X176530952Y-105968361D01*
X176530952Y-105968361D02*
X176554762Y-106015980D01*
X176554762Y-106015980D02*
X176554762Y-106063599D01*
X176554762Y-106063599D02*
X176530952Y-106135028D01*
X176530952Y-106135028D02*
X176245238Y-106420742D01*
X176245238Y-106420742D02*
X176554762Y-106420742D01*
X176840476Y-106135028D02*
X176792857Y-106111218D01*
X176792857Y-106111218D02*
X176769047Y-106087409D01*
X176769047Y-106087409D02*
X176745238Y-106039790D01*
X176745238Y-106039790D02*
X176745238Y-106015980D01*
X176745238Y-106015980D02*
X176769047Y-105968361D01*
X176769047Y-105968361D02*
X176792857Y-105944552D01*
X176792857Y-105944552D02*
X176840476Y-105920742D01*
X176840476Y-105920742D02*
X176935714Y-105920742D01*
X176935714Y-105920742D02*
X176983333Y-105944552D01*
X176983333Y-105944552D02*
X177007142Y-105968361D01*
X177007142Y-105968361D02*
X177030952Y-106015980D01*
X177030952Y-106015980D02*
X177030952Y-106039790D01*
X177030952Y-106039790D02*
X177007142Y-106087409D01*
X177007142Y-106087409D02*
X176983333Y-106111218D01*
X176983333Y-106111218D02*
X176935714Y-106135028D01*
X176935714Y-106135028D02*
X176840476Y-106135028D01*
X176840476Y-106135028D02*
X176792857Y-106158837D01*
X176792857Y-106158837D02*
X176769047Y-106182647D01*
X176769047Y-106182647D02*
X176745238Y-106230266D01*
X176745238Y-106230266D02*
X176745238Y-106325504D01*
X176745238Y-106325504D02*
X176769047Y-106373123D01*
X176769047Y-106373123D02*
X176792857Y-106396933D01*
X176792857Y-106396933D02*
X176840476Y-106420742D01*
X176840476Y-106420742D02*
X176935714Y-106420742D01*
X176935714Y-106420742D02*
X176983333Y-106396933D01*
X176983333Y-106396933D02*
X177007142Y-106373123D01*
X177007142Y-106373123D02*
X177030952Y-106325504D01*
X177030952Y-106325504D02*
X177030952Y-106230266D01*
X177030952Y-106230266D02*
X177007142Y-106182647D01*
X177007142Y-106182647D02*
X176983333Y-106158837D01*
X176983333Y-106158837D02*
X176935714Y-106135028D01*
X175903571Y-111179790D02*
X175879762Y-111203600D01*
X175879762Y-111203600D02*
X175808333Y-111227409D01*
X175808333Y-111227409D02*
X175760714Y-111227409D01*
X175760714Y-111227409D02*
X175689286Y-111203600D01*
X175689286Y-111203600D02*
X175641667Y-111155980D01*
X175641667Y-111155980D02*
X175617857Y-111108361D01*
X175617857Y-111108361D02*
X175594048Y-111013123D01*
X175594048Y-111013123D02*
X175594048Y-110941695D01*
X175594048Y-110941695D02*
X175617857Y-110846457D01*
X175617857Y-110846457D02*
X175641667Y-110798838D01*
X175641667Y-110798838D02*
X175689286Y-110751219D01*
X175689286Y-110751219D02*
X175760714Y-110727409D01*
X175760714Y-110727409D02*
X175808333Y-110727409D01*
X175808333Y-110727409D02*
X175879762Y-110751219D01*
X175879762Y-110751219D02*
X175903571Y-110775028D01*
X176379762Y-111227409D02*
X176094048Y-111227409D01*
X176236905Y-111227409D02*
X176236905Y-110727409D01*
X176236905Y-110727409D02*
X176189286Y-110798838D01*
X176189286Y-110798838D02*
X176141667Y-110846457D01*
X176141667Y-110846457D02*
X176094048Y-110870266D01*
X176808333Y-110894076D02*
X176808333Y-111227409D01*
X176689285Y-110703600D02*
X176570238Y-111060742D01*
X176570238Y-111060742D02*
X176879761Y-111060742D01*
X167179790Y-103021428D02*
X167203600Y-103045237D01*
X167203600Y-103045237D02*
X167227409Y-103116666D01*
X167227409Y-103116666D02*
X167227409Y-103164285D01*
X167227409Y-103164285D02*
X167203600Y-103235713D01*
X167203600Y-103235713D02*
X167155980Y-103283332D01*
X167155980Y-103283332D02*
X167108361Y-103307142D01*
X167108361Y-103307142D02*
X167013123Y-103330951D01*
X167013123Y-103330951D02*
X166941695Y-103330951D01*
X166941695Y-103330951D02*
X166846457Y-103307142D01*
X166846457Y-103307142D02*
X166798838Y-103283332D01*
X166798838Y-103283332D02*
X166751219Y-103235713D01*
X166751219Y-103235713D02*
X166727409Y-103164285D01*
X166727409Y-103164285D02*
X166727409Y-103116666D01*
X166727409Y-103116666D02*
X166751219Y-103045237D01*
X166751219Y-103045237D02*
X166775028Y-103021428D01*
X166775028Y-102830951D02*
X166751219Y-102807142D01*
X166751219Y-102807142D02*
X166727409Y-102759523D01*
X166727409Y-102759523D02*
X166727409Y-102640475D01*
X166727409Y-102640475D02*
X166751219Y-102592856D01*
X166751219Y-102592856D02*
X166775028Y-102569047D01*
X166775028Y-102569047D02*
X166822647Y-102545237D01*
X166822647Y-102545237D02*
X166870266Y-102545237D01*
X166870266Y-102545237D02*
X166941695Y-102569047D01*
X166941695Y-102569047D02*
X167227409Y-102854761D01*
X167227409Y-102854761D02*
X167227409Y-102545237D01*
X167227409Y-102069047D02*
X167227409Y-102354761D01*
X167227409Y-102211904D02*
X166727409Y-102211904D01*
X166727409Y-102211904D02*
X166798838Y-102259523D01*
X166798838Y-102259523D02*
X166846457Y-102307142D01*
X166846457Y-102307142D02*
X166870266Y-102354761D01*
X148316666Y-121027409D02*
X148150000Y-120789314D01*
X148030952Y-121027409D02*
X148030952Y-120527409D01*
X148030952Y-120527409D02*
X148221428Y-120527409D01*
X148221428Y-120527409D02*
X148269047Y-120551219D01*
X148269047Y-120551219D02*
X148292857Y-120575028D01*
X148292857Y-120575028D02*
X148316666Y-120622647D01*
X148316666Y-120622647D02*
X148316666Y-120694076D01*
X148316666Y-120694076D02*
X148292857Y-120741695D01*
X148292857Y-120741695D02*
X148269047Y-120765504D01*
X148269047Y-120765504D02*
X148221428Y-120789314D01*
X148221428Y-120789314D02*
X148030952Y-120789314D01*
X148507143Y-120575028D02*
X148530952Y-120551219D01*
X148530952Y-120551219D02*
X148578571Y-120527409D01*
X148578571Y-120527409D02*
X148697619Y-120527409D01*
X148697619Y-120527409D02*
X148745238Y-120551219D01*
X148745238Y-120551219D02*
X148769047Y-120575028D01*
X148769047Y-120575028D02*
X148792857Y-120622647D01*
X148792857Y-120622647D02*
X148792857Y-120670266D01*
X148792857Y-120670266D02*
X148769047Y-120741695D01*
X148769047Y-120741695D02*
X148483333Y-121027409D01*
X148483333Y-121027409D02*
X148792857Y-121027409D01*
X155828748Y-87483010D02*
X155795076Y-87483010D01*
X155795076Y-87483010D02*
X155727733Y-87449339D01*
X155727733Y-87449339D02*
X155694061Y-87415667D01*
X155694061Y-87415667D02*
X155660389Y-87348323D01*
X155660389Y-87348323D02*
X155660389Y-87280980D01*
X155660389Y-87280980D02*
X155677225Y-87230472D01*
X155677225Y-87230472D02*
X155727733Y-87146293D01*
X155727733Y-87146293D02*
X155778241Y-87095785D01*
X155778241Y-87095785D02*
X155862420Y-87045278D01*
X155862420Y-87045278D02*
X155912928Y-87028442D01*
X155912928Y-87028442D02*
X155980271Y-87028442D01*
X155980271Y-87028442D02*
X156047615Y-87062113D01*
X156047615Y-87062113D02*
X156081286Y-87095785D01*
X156081286Y-87095785D02*
X156114958Y-87163129D01*
X156114958Y-87163129D02*
X156114958Y-87196800D01*
X155946599Y-87668205D02*
X156300153Y-87314652D01*
X156300153Y-87314652D02*
X156148630Y-87870236D01*
X156148630Y-87870236D02*
X156502183Y-87516682D01*
X156502184Y-88223789D02*
X156300153Y-88021759D01*
X156401168Y-88122774D02*
X156754722Y-87769221D01*
X156754722Y-87769221D02*
X156670542Y-87786056D01*
X156670542Y-87786056D02*
X156603199Y-87786056D01*
X156603199Y-87786056D02*
X156552691Y-87769221D01*
X171327409Y-110383333D02*
X171089314Y-110549999D01*
X171327409Y-110669047D02*
X170827409Y-110669047D01*
X170827409Y-110669047D02*
X170827409Y-110478571D01*
X170827409Y-110478571D02*
X170851219Y-110430952D01*
X170851219Y-110430952D02*
X170875028Y-110407142D01*
X170875028Y-110407142D02*
X170922647Y-110383333D01*
X170922647Y-110383333D02*
X170994076Y-110383333D01*
X170994076Y-110383333D02*
X171041695Y-110407142D01*
X171041695Y-110407142D02*
X171065504Y-110430952D01*
X171065504Y-110430952D02*
X171089314Y-110478571D01*
X171089314Y-110478571D02*
X171089314Y-110669047D01*
X170827409Y-109954761D02*
X170827409Y-110049999D01*
X170827409Y-110049999D02*
X170851219Y-110097618D01*
X170851219Y-110097618D02*
X170875028Y-110121428D01*
X170875028Y-110121428D02*
X170946457Y-110169047D01*
X170946457Y-110169047D02*
X171041695Y-110192856D01*
X171041695Y-110192856D02*
X171232171Y-110192856D01*
X171232171Y-110192856D02*
X171279790Y-110169047D01*
X171279790Y-110169047D02*
X171303600Y-110145237D01*
X171303600Y-110145237D02*
X171327409Y-110097618D01*
X171327409Y-110097618D02*
X171327409Y-110002380D01*
X171327409Y-110002380D02*
X171303600Y-109954761D01*
X171303600Y-109954761D02*
X171279790Y-109930952D01*
X171279790Y-109930952D02*
X171232171Y-109907142D01*
X171232171Y-109907142D02*
X171113123Y-109907142D01*
X171113123Y-109907142D02*
X171065504Y-109930952D01*
X171065504Y-109930952D02*
X171041695Y-109954761D01*
X171041695Y-109954761D02*
X171017885Y-110002380D01*
X171017885Y-110002380D02*
X171017885Y-110097618D01*
X171017885Y-110097618D02*
X171041695Y-110145237D01*
X171041695Y-110145237D02*
X171065504Y-110169047D01*
X171065504Y-110169047D02*
X171113123Y-110192856D01*
X181920833Y-83227409D02*
X181920833Y-83584552D01*
X181920833Y-83584552D02*
X181897024Y-83655980D01*
X181897024Y-83655980D02*
X181849405Y-83703600D01*
X181849405Y-83703600D02*
X181777976Y-83727409D01*
X181777976Y-83727409D02*
X181730357Y-83727409D01*
X182135119Y-83275028D02*
X182158928Y-83251219D01*
X182158928Y-83251219D02*
X182206547Y-83227409D01*
X182206547Y-83227409D02*
X182325595Y-83227409D01*
X182325595Y-83227409D02*
X182373214Y-83251219D01*
X182373214Y-83251219D02*
X182397023Y-83275028D01*
X182397023Y-83275028D02*
X182420833Y-83322647D01*
X182420833Y-83322647D02*
X182420833Y-83370266D01*
X182420833Y-83370266D02*
X182397023Y-83441695D01*
X182397023Y-83441695D02*
X182111309Y-83727409D01*
X182111309Y-83727409D02*
X182420833Y-83727409D01*
X154178571Y-117627409D02*
X154011905Y-117389314D01*
X153892857Y-117627409D02*
X153892857Y-117127409D01*
X153892857Y-117127409D02*
X154083333Y-117127409D01*
X154083333Y-117127409D02*
X154130952Y-117151219D01*
X154130952Y-117151219D02*
X154154762Y-117175028D01*
X154154762Y-117175028D02*
X154178571Y-117222647D01*
X154178571Y-117222647D02*
X154178571Y-117294076D01*
X154178571Y-117294076D02*
X154154762Y-117341695D01*
X154154762Y-117341695D02*
X154130952Y-117365504D01*
X154130952Y-117365504D02*
X154083333Y-117389314D01*
X154083333Y-117389314D02*
X153892857Y-117389314D01*
X154654762Y-117627409D02*
X154369048Y-117627409D01*
X154511905Y-117627409D02*
X154511905Y-117127409D01*
X154511905Y-117127409D02*
X154464286Y-117198838D01*
X154464286Y-117198838D02*
X154416667Y-117246457D01*
X154416667Y-117246457D02*
X154369048Y-117270266D01*
X155083333Y-117294076D02*
X155083333Y-117627409D01*
X154964285Y-117103600D02*
X154845238Y-117460742D01*
X154845238Y-117460742D02*
X155154761Y-117460742D01*
D11*
X174331009Y-88333333D02*
X174378628Y-88190476D01*
X174378628Y-88190476D02*
X174426247Y-88142857D01*
X174426247Y-88142857D02*
X174521485Y-88095238D01*
X174521485Y-88095238D02*
X174664342Y-88095238D01*
X174664342Y-88095238D02*
X174759580Y-88142857D01*
X174759580Y-88142857D02*
X174807200Y-88190476D01*
X174807200Y-88190476D02*
X174854819Y-88285714D01*
X174854819Y-88285714D02*
X174854819Y-88666666D01*
X174854819Y-88666666D02*
X173854819Y-88666666D01*
X173854819Y-88666666D02*
X173854819Y-88333333D01*
X173854819Y-88333333D02*
X173902438Y-88238095D01*
X173902438Y-88238095D02*
X173950057Y-88190476D01*
X173950057Y-88190476D02*
X174045295Y-88142857D01*
X174045295Y-88142857D02*
X174140533Y-88142857D01*
X174140533Y-88142857D02*
X174235771Y-88190476D01*
X174235771Y-88190476D02*
X174283390Y-88238095D01*
X174283390Y-88238095D02*
X174331009Y-88333333D01*
X174331009Y-88333333D02*
X174331009Y-88666666D01*
X173854819Y-87476190D02*
X173854819Y-87285714D01*
X173854819Y-87285714D02*
X173902438Y-87190476D01*
X173902438Y-87190476D02*
X173997676Y-87095238D01*
X173997676Y-87095238D02*
X174188152Y-87047619D01*
X174188152Y-87047619D02*
X174521485Y-87047619D01*
X174521485Y-87047619D02*
X174711961Y-87095238D01*
X174711961Y-87095238D02*
X174807200Y-87190476D01*
X174807200Y-87190476D02*
X174854819Y-87285714D01*
X174854819Y-87285714D02*
X174854819Y-87476190D01*
X174854819Y-87476190D02*
X174807200Y-87571428D01*
X174807200Y-87571428D02*
X174711961Y-87666666D01*
X174711961Y-87666666D02*
X174521485Y-87714285D01*
X174521485Y-87714285D02*
X174188152Y-87714285D01*
X174188152Y-87714285D02*
X173997676Y-87666666D01*
X173997676Y-87666666D02*
X173902438Y-87571428D01*
X173902438Y-87571428D02*
X173854819Y-87476190D01*
X173854819Y-86428571D02*
X173854819Y-86238095D01*
X173854819Y-86238095D02*
X173902438Y-86142857D01*
X173902438Y-86142857D02*
X173997676Y-86047619D01*
X173997676Y-86047619D02*
X174188152Y-86000000D01*
X174188152Y-86000000D02*
X174521485Y-86000000D01*
X174521485Y-86000000D02*
X174711961Y-86047619D01*
X174711961Y-86047619D02*
X174807200Y-86142857D01*
X174807200Y-86142857D02*
X174854819Y-86238095D01*
X174854819Y-86238095D02*
X174854819Y-86428571D01*
X174854819Y-86428571D02*
X174807200Y-86523809D01*
X174807200Y-86523809D02*
X174711961Y-86619047D01*
X174711961Y-86619047D02*
X174521485Y-86666666D01*
X174521485Y-86666666D02*
X174188152Y-86666666D01*
X174188152Y-86666666D02*
X173997676Y-86619047D01*
X173997676Y-86619047D02*
X173902438Y-86523809D01*
X173902438Y-86523809D02*
X173854819Y-86428571D01*
X173854819Y-85714285D02*
X173854819Y-85142857D01*
X174854819Y-85428571D02*
X173854819Y-85428571D01*
X173854819Y-84619047D02*
X173854819Y-84523809D01*
X173854819Y-84523809D02*
X173902438Y-84428571D01*
X173902438Y-84428571D02*
X173950057Y-84380952D01*
X173950057Y-84380952D02*
X174045295Y-84333333D01*
X174045295Y-84333333D02*
X174235771Y-84285714D01*
X174235771Y-84285714D02*
X174473866Y-84285714D01*
X174473866Y-84285714D02*
X174664342Y-84333333D01*
X174664342Y-84333333D02*
X174759580Y-84380952D01*
X174759580Y-84380952D02*
X174807200Y-84428571D01*
X174807200Y-84428571D02*
X174854819Y-84523809D01*
X174854819Y-84523809D02*
X174854819Y-84619047D01*
X174854819Y-84619047D02*
X174807200Y-84714285D01*
X174807200Y-84714285D02*
X174759580Y-84761904D01*
X174759580Y-84761904D02*
X174664342Y-84809523D01*
X174664342Y-84809523D02*
X174473866Y-84857142D01*
X174473866Y-84857142D02*
X174235771Y-84857142D01*
X174235771Y-84857142D02*
X174045295Y-84809523D01*
X174045295Y-84809523D02*
X173950057Y-84761904D01*
X173950057Y-84761904D02*
X173902438Y-84714285D01*
X173902438Y-84714285D02*
X173854819Y-84619047D01*
D10*
X174979790Y-96521428D02*
X175003600Y-96545237D01*
X175003600Y-96545237D02*
X175027409Y-96616666D01*
X175027409Y-96616666D02*
X175027409Y-96664285D01*
X175027409Y-96664285D02*
X175003600Y-96735713D01*
X175003600Y-96735713D02*
X174955980Y-96783332D01*
X174955980Y-96783332D02*
X174908361Y-96807142D01*
X174908361Y-96807142D02*
X174813123Y-96830951D01*
X174813123Y-96830951D02*
X174741695Y-96830951D01*
X174741695Y-96830951D02*
X174646457Y-96807142D01*
X174646457Y-96807142D02*
X174598838Y-96783332D01*
X174598838Y-96783332D02*
X174551219Y-96735713D01*
X174551219Y-96735713D02*
X174527409Y-96664285D01*
X174527409Y-96664285D02*
X174527409Y-96616666D01*
X174527409Y-96616666D02*
X174551219Y-96545237D01*
X174551219Y-96545237D02*
X174575028Y-96521428D01*
X174575028Y-96330951D02*
X174551219Y-96307142D01*
X174551219Y-96307142D02*
X174527409Y-96259523D01*
X174527409Y-96259523D02*
X174527409Y-96140475D01*
X174527409Y-96140475D02*
X174551219Y-96092856D01*
X174551219Y-96092856D02*
X174575028Y-96069047D01*
X174575028Y-96069047D02*
X174622647Y-96045237D01*
X174622647Y-96045237D02*
X174670266Y-96045237D01*
X174670266Y-96045237D02*
X174741695Y-96069047D01*
X174741695Y-96069047D02*
X175027409Y-96354761D01*
X175027409Y-96354761D02*
X175027409Y-96045237D01*
X174694076Y-95616666D02*
X175027409Y-95616666D01*
X174503600Y-95735714D02*
X174860742Y-95854761D01*
X174860742Y-95854761D02*
X174860742Y-95545238D01*
X144630952Y-93727409D02*
X144630952Y-93227409D01*
X144630952Y-93227409D02*
X144750000Y-93227409D01*
X144750000Y-93227409D02*
X144821428Y-93251219D01*
X144821428Y-93251219D02*
X144869047Y-93298838D01*
X144869047Y-93298838D02*
X144892857Y-93346457D01*
X144892857Y-93346457D02*
X144916666Y-93441695D01*
X144916666Y-93441695D02*
X144916666Y-93513123D01*
X144916666Y-93513123D02*
X144892857Y-93608361D01*
X144892857Y-93608361D02*
X144869047Y-93655980D01*
X144869047Y-93655980D02*
X144821428Y-93703600D01*
X144821428Y-93703600D02*
X144750000Y-93727409D01*
X144750000Y-93727409D02*
X144630952Y-93727409D01*
X145083333Y-93227409D02*
X145416666Y-93227409D01*
X145416666Y-93227409D02*
X145202381Y-93727409D01*
X174427409Y-114180952D02*
X174832171Y-114180952D01*
X174832171Y-114180952D02*
X174879790Y-114157142D01*
X174879790Y-114157142D02*
X174903600Y-114133333D01*
X174903600Y-114133333D02*
X174927409Y-114085714D01*
X174927409Y-114085714D02*
X174927409Y-113990476D01*
X174927409Y-113990476D02*
X174903600Y-113942857D01*
X174903600Y-113942857D02*
X174879790Y-113919047D01*
X174879790Y-113919047D02*
X174832171Y-113895238D01*
X174832171Y-113895238D02*
X174427409Y-113895238D01*
X174594076Y-113442856D02*
X174927409Y-113442856D01*
X174403600Y-113561904D02*
X174760742Y-113680951D01*
X174760742Y-113680951D02*
X174760742Y-113371428D01*
X177316666Y-82126409D02*
X177150000Y-81888314D01*
X177030952Y-82126409D02*
X177030952Y-81626409D01*
X177030952Y-81626409D02*
X177221428Y-81626409D01*
X177221428Y-81626409D02*
X177269047Y-81650219D01*
X177269047Y-81650219D02*
X177292857Y-81674028D01*
X177292857Y-81674028D02*
X177316666Y-81721647D01*
X177316666Y-81721647D02*
X177316666Y-81793076D01*
X177316666Y-81793076D02*
X177292857Y-81840695D01*
X177292857Y-81840695D02*
X177269047Y-81864504D01*
X177269047Y-81864504D02*
X177221428Y-81888314D01*
X177221428Y-81888314D02*
X177030952Y-81888314D01*
X177745238Y-81793076D02*
X177745238Y-82126409D01*
X177626190Y-81602600D02*
X177507143Y-81959742D01*
X177507143Y-81959742D02*
X177816666Y-81959742D01*
X169779790Y-106471428D02*
X169803600Y-106495237D01*
X169803600Y-106495237D02*
X169827409Y-106566666D01*
X169827409Y-106566666D02*
X169827409Y-106614285D01*
X169827409Y-106614285D02*
X169803600Y-106685713D01*
X169803600Y-106685713D02*
X169755980Y-106733332D01*
X169755980Y-106733332D02*
X169708361Y-106757142D01*
X169708361Y-106757142D02*
X169613123Y-106780951D01*
X169613123Y-106780951D02*
X169541695Y-106780951D01*
X169541695Y-106780951D02*
X169446457Y-106757142D01*
X169446457Y-106757142D02*
X169398838Y-106733332D01*
X169398838Y-106733332D02*
X169351219Y-106685713D01*
X169351219Y-106685713D02*
X169327409Y-106614285D01*
X169327409Y-106614285D02*
X169327409Y-106566666D01*
X169327409Y-106566666D02*
X169351219Y-106495237D01*
X169351219Y-106495237D02*
X169375028Y-106471428D01*
X169375028Y-106280951D02*
X169351219Y-106257142D01*
X169351219Y-106257142D02*
X169327409Y-106209523D01*
X169327409Y-106209523D02*
X169327409Y-106090475D01*
X169327409Y-106090475D02*
X169351219Y-106042856D01*
X169351219Y-106042856D02*
X169375028Y-106019047D01*
X169375028Y-106019047D02*
X169422647Y-105995237D01*
X169422647Y-105995237D02*
X169470266Y-105995237D01*
X169470266Y-105995237D02*
X169541695Y-106019047D01*
X169541695Y-106019047D02*
X169827409Y-106304761D01*
X169827409Y-106304761D02*
X169827409Y-105995237D01*
X169827409Y-105757142D02*
X169827409Y-105661904D01*
X169827409Y-105661904D02*
X169803600Y-105614285D01*
X169803600Y-105614285D02*
X169779790Y-105590476D01*
X169779790Y-105590476D02*
X169708361Y-105542857D01*
X169708361Y-105542857D02*
X169613123Y-105519047D01*
X169613123Y-105519047D02*
X169422647Y-105519047D01*
X169422647Y-105519047D02*
X169375028Y-105542857D01*
X169375028Y-105542857D02*
X169351219Y-105566666D01*
X169351219Y-105566666D02*
X169327409Y-105614285D01*
X169327409Y-105614285D02*
X169327409Y-105709523D01*
X169327409Y-105709523D02*
X169351219Y-105757142D01*
X169351219Y-105757142D02*
X169375028Y-105780952D01*
X169375028Y-105780952D02*
X169422647Y-105804761D01*
X169422647Y-105804761D02*
X169541695Y-105804761D01*
X169541695Y-105804761D02*
X169589314Y-105780952D01*
X169589314Y-105780952D02*
X169613123Y-105757142D01*
X169613123Y-105757142D02*
X169636933Y-105709523D01*
X169636933Y-105709523D02*
X169636933Y-105614285D01*
X169636933Y-105614285D02*
X169613123Y-105566666D01*
X169613123Y-105566666D02*
X169589314Y-105542857D01*
X169589314Y-105542857D02*
X169541695Y-105519047D01*
X151316666Y-102629790D02*
X151292857Y-102653600D01*
X151292857Y-102653600D02*
X151221428Y-102677409D01*
X151221428Y-102677409D02*
X151173809Y-102677409D01*
X151173809Y-102677409D02*
X151102381Y-102653600D01*
X151102381Y-102653600D02*
X151054762Y-102605980D01*
X151054762Y-102605980D02*
X151030952Y-102558361D01*
X151030952Y-102558361D02*
X151007143Y-102463123D01*
X151007143Y-102463123D02*
X151007143Y-102391695D01*
X151007143Y-102391695D02*
X151030952Y-102296457D01*
X151030952Y-102296457D02*
X151054762Y-102248838D01*
X151054762Y-102248838D02*
X151102381Y-102201219D01*
X151102381Y-102201219D02*
X151173809Y-102177409D01*
X151173809Y-102177409D02*
X151221428Y-102177409D01*
X151221428Y-102177409D02*
X151292857Y-102201219D01*
X151292857Y-102201219D02*
X151316666Y-102225028D01*
X151769047Y-102177409D02*
X151530952Y-102177409D01*
X151530952Y-102177409D02*
X151507143Y-102415504D01*
X151507143Y-102415504D02*
X151530952Y-102391695D01*
X151530952Y-102391695D02*
X151578571Y-102367885D01*
X151578571Y-102367885D02*
X151697619Y-102367885D01*
X151697619Y-102367885D02*
X151745238Y-102391695D01*
X151745238Y-102391695D02*
X151769047Y-102415504D01*
X151769047Y-102415504D02*
X151792857Y-102463123D01*
X151792857Y-102463123D02*
X151792857Y-102582171D01*
X151792857Y-102582171D02*
X151769047Y-102629790D01*
X151769047Y-102629790D02*
X151745238Y-102653600D01*
X151745238Y-102653600D02*
X151697619Y-102677409D01*
X151697619Y-102677409D02*
X151578571Y-102677409D01*
X151578571Y-102677409D02*
X151530952Y-102653600D01*
X151530952Y-102653600D02*
X151507143Y-102629790D01*
X149516666Y-117479790D02*
X149492857Y-117503600D01*
X149492857Y-117503600D02*
X149421428Y-117527409D01*
X149421428Y-117527409D02*
X149373809Y-117527409D01*
X149373809Y-117527409D02*
X149302381Y-117503600D01*
X149302381Y-117503600D02*
X149254762Y-117455980D01*
X149254762Y-117455980D02*
X149230952Y-117408361D01*
X149230952Y-117408361D02*
X149207143Y-117313123D01*
X149207143Y-117313123D02*
X149207143Y-117241695D01*
X149207143Y-117241695D02*
X149230952Y-117146457D01*
X149230952Y-117146457D02*
X149254762Y-117098838D01*
X149254762Y-117098838D02*
X149302381Y-117051219D01*
X149302381Y-117051219D02*
X149373809Y-117027409D01*
X149373809Y-117027409D02*
X149421428Y-117027409D01*
X149421428Y-117027409D02*
X149492857Y-117051219D01*
X149492857Y-117051219D02*
X149516666Y-117075028D01*
X149707143Y-117075028D02*
X149730952Y-117051219D01*
X149730952Y-117051219D02*
X149778571Y-117027409D01*
X149778571Y-117027409D02*
X149897619Y-117027409D01*
X149897619Y-117027409D02*
X149945238Y-117051219D01*
X149945238Y-117051219D02*
X149969047Y-117075028D01*
X149969047Y-117075028D02*
X149992857Y-117122647D01*
X149992857Y-117122647D02*
X149992857Y-117170266D01*
X149992857Y-117170266D02*
X149969047Y-117241695D01*
X149969047Y-117241695D02*
X149683333Y-117527409D01*
X149683333Y-117527409D02*
X149992857Y-117527409D01*
X160679790Y-90021428D02*
X160703600Y-90045237D01*
X160703600Y-90045237D02*
X160727409Y-90116666D01*
X160727409Y-90116666D02*
X160727409Y-90164285D01*
X160727409Y-90164285D02*
X160703600Y-90235713D01*
X160703600Y-90235713D02*
X160655980Y-90283332D01*
X160655980Y-90283332D02*
X160608361Y-90307142D01*
X160608361Y-90307142D02*
X160513123Y-90330951D01*
X160513123Y-90330951D02*
X160441695Y-90330951D01*
X160441695Y-90330951D02*
X160346457Y-90307142D01*
X160346457Y-90307142D02*
X160298838Y-90283332D01*
X160298838Y-90283332D02*
X160251219Y-90235713D01*
X160251219Y-90235713D02*
X160227409Y-90164285D01*
X160227409Y-90164285D02*
X160227409Y-90116666D01*
X160227409Y-90116666D02*
X160251219Y-90045237D01*
X160251219Y-90045237D02*
X160275028Y-90021428D01*
X160275028Y-89830951D02*
X160251219Y-89807142D01*
X160251219Y-89807142D02*
X160227409Y-89759523D01*
X160227409Y-89759523D02*
X160227409Y-89640475D01*
X160227409Y-89640475D02*
X160251219Y-89592856D01*
X160251219Y-89592856D02*
X160275028Y-89569047D01*
X160275028Y-89569047D02*
X160322647Y-89545237D01*
X160322647Y-89545237D02*
X160370266Y-89545237D01*
X160370266Y-89545237D02*
X160441695Y-89569047D01*
X160441695Y-89569047D02*
X160727409Y-89854761D01*
X160727409Y-89854761D02*
X160727409Y-89545237D01*
X160227409Y-89092857D02*
X160227409Y-89330952D01*
X160227409Y-89330952D02*
X160465504Y-89354761D01*
X160465504Y-89354761D02*
X160441695Y-89330952D01*
X160441695Y-89330952D02*
X160417885Y-89283333D01*
X160417885Y-89283333D02*
X160417885Y-89164285D01*
X160417885Y-89164285D02*
X160441695Y-89116666D01*
X160441695Y-89116666D02*
X160465504Y-89092857D01*
X160465504Y-89092857D02*
X160513123Y-89069047D01*
X160513123Y-89069047D02*
X160632171Y-89069047D01*
X160632171Y-89069047D02*
X160679790Y-89092857D01*
X160679790Y-89092857D02*
X160703600Y-89116666D01*
X160703600Y-89116666D02*
X160727409Y-89164285D01*
X160727409Y-89164285D02*
X160727409Y-89283333D01*
X160727409Y-89283333D02*
X160703600Y-89330952D01*
X160703600Y-89330952D02*
X160679790Y-89354761D01*
X142733333Y-90527409D02*
X142733333Y-90884552D01*
X142733333Y-90884552D02*
X142709524Y-90955980D01*
X142709524Y-90955980D02*
X142661905Y-91003600D01*
X142661905Y-91003600D02*
X142590476Y-91027409D01*
X142590476Y-91027409D02*
X142542857Y-91027409D01*
X143233333Y-91027409D02*
X142947619Y-91027409D01*
X143090476Y-91027409D02*
X143090476Y-90527409D01*
X143090476Y-90527409D02*
X143042857Y-90598838D01*
X143042857Y-90598838D02*
X142995238Y-90646457D01*
X142995238Y-90646457D02*
X142947619Y-90670266D01*
X161645584Y-94399846D02*
X161611913Y-94399846D01*
X161611913Y-94399846D02*
X161544569Y-94366174D01*
X161544569Y-94366174D02*
X161510897Y-94332502D01*
X161510897Y-94332502D02*
X161477226Y-94265159D01*
X161477226Y-94265159D02*
X161477226Y-94197815D01*
X161477226Y-94197815D02*
X161494062Y-94147307D01*
X161494062Y-94147307D02*
X161544569Y-94063128D01*
X161544569Y-94063128D02*
X161595077Y-94012620D01*
X161595077Y-94012620D02*
X161679256Y-93962113D01*
X161679256Y-93962113D02*
X161729764Y-93945277D01*
X161729764Y-93945277D02*
X161797107Y-93945277D01*
X161797107Y-93945277D02*
X161864451Y-93978949D01*
X161864451Y-93978949D02*
X161898123Y-94012620D01*
X161898123Y-94012620D02*
X161931794Y-94079964D01*
X161931794Y-94079964D02*
X161931794Y-94113636D01*
X161948630Y-94770235D02*
X161746600Y-94568204D01*
X161847615Y-94669220D02*
X162201168Y-94315666D01*
X162201168Y-94315666D02*
X162116989Y-94332502D01*
X162116989Y-94332502D02*
X162049645Y-94332502D01*
X162049645Y-94332502D02*
X161999138Y-94315666D01*
X162420034Y-94534532D02*
X162638901Y-94753399D01*
X162638901Y-94753399D02*
X162386363Y-94770235D01*
X162386363Y-94770235D02*
X162436870Y-94820742D01*
X162436870Y-94820742D02*
X162453706Y-94871250D01*
X162453706Y-94871250D02*
X162453706Y-94904922D01*
X162453706Y-94904922D02*
X162436870Y-94955429D01*
X162436870Y-94955429D02*
X162352691Y-95039609D01*
X162352691Y-95039609D02*
X162302183Y-95056444D01*
X162302183Y-95056444D02*
X162268512Y-95056444D01*
X162268512Y-95056444D02*
X162218004Y-95039609D01*
X162218004Y-95039609D02*
X162116989Y-94938593D01*
X162116989Y-94938593D02*
X162100153Y-94888086D01*
X162100153Y-94888086D02*
X162100153Y-94854414D01*
D11*
X156642857Y-85307200D02*
X156785714Y-85354819D01*
X156785714Y-85354819D02*
X157023809Y-85354819D01*
X157023809Y-85354819D02*
X157119047Y-85307200D01*
X157119047Y-85307200D02*
X157166666Y-85259580D01*
X157166666Y-85259580D02*
X157214285Y-85164342D01*
X157214285Y-85164342D02*
X157214285Y-85069104D01*
X157214285Y-85069104D02*
X157166666Y-84973866D01*
X157166666Y-84973866D02*
X157119047Y-84926247D01*
X157119047Y-84926247D02*
X157023809Y-84878628D01*
X157023809Y-84878628D02*
X156833333Y-84831009D01*
X156833333Y-84831009D02*
X156738095Y-84783390D01*
X156738095Y-84783390D02*
X156690476Y-84735771D01*
X156690476Y-84735771D02*
X156642857Y-84640533D01*
X156642857Y-84640533D02*
X156642857Y-84545295D01*
X156642857Y-84545295D02*
X156690476Y-84450057D01*
X156690476Y-84450057D02*
X156738095Y-84402438D01*
X156738095Y-84402438D02*
X156833333Y-84354819D01*
X156833333Y-84354819D02*
X157071428Y-84354819D01*
X157071428Y-84354819D02*
X157214285Y-84402438D01*
X157547619Y-84354819D02*
X157785714Y-85354819D01*
X157785714Y-85354819D02*
X157976190Y-84640533D01*
X157976190Y-84640533D02*
X158166666Y-85354819D01*
X158166666Y-85354819D02*
X158404762Y-84354819D01*
X158785714Y-85354819D02*
X158785714Y-84354819D01*
X158785714Y-84354819D02*
X159023809Y-84354819D01*
X159023809Y-84354819D02*
X159166666Y-84402438D01*
X159166666Y-84402438D02*
X159261904Y-84497676D01*
X159261904Y-84497676D02*
X159309523Y-84592914D01*
X159309523Y-84592914D02*
X159357142Y-84783390D01*
X159357142Y-84783390D02*
X159357142Y-84926247D01*
X159357142Y-84926247D02*
X159309523Y-85116723D01*
X159309523Y-85116723D02*
X159261904Y-85211961D01*
X159261904Y-85211961D02*
X159166666Y-85307200D01*
X159166666Y-85307200D02*
X159023809Y-85354819D01*
X159023809Y-85354819D02*
X158785714Y-85354819D01*
D10*
X177278571Y-83779790D02*
X177254762Y-83803600D01*
X177254762Y-83803600D02*
X177183333Y-83827409D01*
X177183333Y-83827409D02*
X177135714Y-83827409D01*
X177135714Y-83827409D02*
X177064286Y-83803600D01*
X177064286Y-83803600D02*
X177016667Y-83755980D01*
X177016667Y-83755980D02*
X176992857Y-83708361D01*
X176992857Y-83708361D02*
X176969048Y-83613123D01*
X176969048Y-83613123D02*
X176969048Y-83541695D01*
X176969048Y-83541695D02*
X176992857Y-83446457D01*
X176992857Y-83446457D02*
X177016667Y-83398838D01*
X177016667Y-83398838D02*
X177064286Y-83351219D01*
X177064286Y-83351219D02*
X177135714Y-83327409D01*
X177135714Y-83327409D02*
X177183333Y-83327409D01*
X177183333Y-83327409D02*
X177254762Y-83351219D01*
X177254762Y-83351219D02*
X177278571Y-83375028D01*
X177469048Y-83375028D02*
X177492857Y-83351219D01*
X177492857Y-83351219D02*
X177540476Y-83327409D01*
X177540476Y-83327409D02*
X177659524Y-83327409D01*
X177659524Y-83327409D02*
X177707143Y-83351219D01*
X177707143Y-83351219D02*
X177730952Y-83375028D01*
X177730952Y-83375028D02*
X177754762Y-83422647D01*
X177754762Y-83422647D02*
X177754762Y-83470266D01*
X177754762Y-83470266D02*
X177730952Y-83541695D01*
X177730952Y-83541695D02*
X177445238Y-83827409D01*
X177445238Y-83827409D02*
X177754762Y-83827409D01*
X178183333Y-83327409D02*
X178088095Y-83327409D01*
X178088095Y-83327409D02*
X178040476Y-83351219D01*
X178040476Y-83351219D02*
X178016666Y-83375028D01*
X178016666Y-83375028D02*
X177969047Y-83446457D01*
X177969047Y-83446457D02*
X177945238Y-83541695D01*
X177945238Y-83541695D02*
X177945238Y-83732171D01*
X177945238Y-83732171D02*
X177969047Y-83779790D01*
X177969047Y-83779790D02*
X177992857Y-83803600D01*
X177992857Y-83803600D02*
X178040476Y-83827409D01*
X178040476Y-83827409D02*
X178135714Y-83827409D01*
X178135714Y-83827409D02*
X178183333Y-83803600D01*
X178183333Y-83803600D02*
X178207142Y-83779790D01*
X178207142Y-83779790D02*
X178230952Y-83732171D01*
X178230952Y-83732171D02*
X178230952Y-83613123D01*
X178230952Y-83613123D02*
X178207142Y-83565504D01*
X178207142Y-83565504D02*
X178183333Y-83541695D01*
X178183333Y-83541695D02*
X178135714Y-83517885D01*
X178135714Y-83517885D02*
X178040476Y-83517885D01*
X178040476Y-83517885D02*
X177992857Y-83541695D01*
X177992857Y-83541695D02*
X177969047Y-83565504D01*
X177969047Y-83565504D02*
X177945238Y-83613123D01*
X148027409Y-107608333D02*
X147789314Y-107774999D01*
X148027409Y-107894047D02*
X147527409Y-107894047D01*
X147527409Y-107894047D02*
X147527409Y-107703571D01*
X147527409Y-107703571D02*
X147551219Y-107655952D01*
X147551219Y-107655952D02*
X147575028Y-107632142D01*
X147575028Y-107632142D02*
X147622647Y-107608333D01*
X147622647Y-107608333D02*
X147694076Y-107608333D01*
X147694076Y-107608333D02*
X147741695Y-107632142D01*
X147741695Y-107632142D02*
X147765504Y-107655952D01*
X147765504Y-107655952D02*
X147789314Y-107703571D01*
X147789314Y-107703571D02*
X147789314Y-107894047D01*
X148027409Y-107132142D02*
X148027409Y-107417856D01*
X148027409Y-107274999D02*
X147527409Y-107274999D01*
X147527409Y-107274999D02*
X147598838Y-107322618D01*
X147598838Y-107322618D02*
X147646457Y-107370237D01*
X147646457Y-107370237D02*
X147670266Y-107417856D01*
X176078571Y-107816456D02*
X176054762Y-107840266D01*
X176054762Y-107840266D02*
X175983333Y-107864075D01*
X175983333Y-107864075D02*
X175935714Y-107864075D01*
X175935714Y-107864075D02*
X175864286Y-107840266D01*
X175864286Y-107840266D02*
X175816667Y-107792646D01*
X175816667Y-107792646D02*
X175792857Y-107745027D01*
X175792857Y-107745027D02*
X175769048Y-107649789D01*
X175769048Y-107649789D02*
X175769048Y-107578361D01*
X175769048Y-107578361D02*
X175792857Y-107483123D01*
X175792857Y-107483123D02*
X175816667Y-107435504D01*
X175816667Y-107435504D02*
X175864286Y-107387885D01*
X175864286Y-107387885D02*
X175935714Y-107364075D01*
X175935714Y-107364075D02*
X175983333Y-107364075D01*
X175983333Y-107364075D02*
X176054762Y-107387885D01*
X176054762Y-107387885D02*
X176078571Y-107411694D01*
X176554762Y-107864075D02*
X176269048Y-107864075D01*
X176411905Y-107864075D02*
X176411905Y-107364075D01*
X176411905Y-107364075D02*
X176364286Y-107435504D01*
X176364286Y-107435504D02*
X176316667Y-107483123D01*
X176316667Y-107483123D02*
X176269048Y-107506932D01*
X176983333Y-107364075D02*
X176888095Y-107364075D01*
X176888095Y-107364075D02*
X176840476Y-107387885D01*
X176840476Y-107387885D02*
X176816666Y-107411694D01*
X176816666Y-107411694D02*
X176769047Y-107483123D01*
X176769047Y-107483123D02*
X176745238Y-107578361D01*
X176745238Y-107578361D02*
X176745238Y-107768837D01*
X176745238Y-107768837D02*
X176769047Y-107816456D01*
X176769047Y-107816456D02*
X176792857Y-107840266D01*
X176792857Y-107840266D02*
X176840476Y-107864075D01*
X176840476Y-107864075D02*
X176935714Y-107864075D01*
X176935714Y-107864075D02*
X176983333Y-107840266D01*
X176983333Y-107840266D02*
X177007142Y-107816456D01*
X177007142Y-107816456D02*
X177030952Y-107768837D01*
X177030952Y-107768837D02*
X177030952Y-107649789D01*
X177030952Y-107649789D02*
X177007142Y-107602170D01*
X177007142Y-107602170D02*
X176983333Y-107578361D01*
X176983333Y-107578361D02*
X176935714Y-107554551D01*
X176935714Y-107554551D02*
X176840476Y-107554551D01*
X176840476Y-107554551D02*
X176792857Y-107578361D01*
X176792857Y-107578361D02*
X176769047Y-107602170D01*
X176769047Y-107602170D02*
X176745238Y-107649789D01*
X153927409Y-113321428D02*
X153689314Y-113488094D01*
X153927409Y-113607142D02*
X153427409Y-113607142D01*
X153427409Y-113607142D02*
X153427409Y-113416666D01*
X153427409Y-113416666D02*
X153451219Y-113369047D01*
X153451219Y-113369047D02*
X153475028Y-113345237D01*
X153475028Y-113345237D02*
X153522647Y-113321428D01*
X153522647Y-113321428D02*
X153594076Y-113321428D01*
X153594076Y-113321428D02*
X153641695Y-113345237D01*
X153641695Y-113345237D02*
X153665504Y-113369047D01*
X153665504Y-113369047D02*
X153689314Y-113416666D01*
X153689314Y-113416666D02*
X153689314Y-113607142D01*
X153927409Y-112845237D02*
X153927409Y-113130951D01*
X153927409Y-112988094D02*
X153427409Y-112988094D01*
X153427409Y-112988094D02*
X153498838Y-113035713D01*
X153498838Y-113035713D02*
X153546457Y-113083332D01*
X153546457Y-113083332D02*
X153570266Y-113130951D01*
X153475028Y-112654761D02*
X153451219Y-112630952D01*
X153451219Y-112630952D02*
X153427409Y-112583333D01*
X153427409Y-112583333D02*
X153427409Y-112464285D01*
X153427409Y-112464285D02*
X153451219Y-112416666D01*
X153451219Y-112416666D02*
X153475028Y-112392857D01*
X153475028Y-112392857D02*
X153522647Y-112369047D01*
X153522647Y-112369047D02*
X153570266Y-112369047D01*
X153570266Y-112369047D02*
X153641695Y-112392857D01*
X153641695Y-112392857D02*
X153927409Y-112678571D01*
X153927409Y-112678571D02*
X153927409Y-112369047D01*
X173979790Y-93121428D02*
X174003600Y-93145237D01*
X174003600Y-93145237D02*
X174027409Y-93216666D01*
X174027409Y-93216666D02*
X174027409Y-93264285D01*
X174027409Y-93264285D02*
X174003600Y-93335713D01*
X174003600Y-93335713D02*
X173955980Y-93383332D01*
X173955980Y-93383332D02*
X173908361Y-93407142D01*
X173908361Y-93407142D02*
X173813123Y-93430951D01*
X173813123Y-93430951D02*
X173741695Y-93430951D01*
X173741695Y-93430951D02*
X173646457Y-93407142D01*
X173646457Y-93407142D02*
X173598838Y-93383332D01*
X173598838Y-93383332D02*
X173551219Y-93335713D01*
X173551219Y-93335713D02*
X173527409Y-93264285D01*
X173527409Y-93264285D02*
X173527409Y-93216666D01*
X173527409Y-93216666D02*
X173551219Y-93145237D01*
X173551219Y-93145237D02*
X173575028Y-93121428D01*
X174027409Y-92645237D02*
X174027409Y-92930951D01*
X174027409Y-92788094D02*
X173527409Y-92788094D01*
X173527409Y-92788094D02*
X173598838Y-92835713D01*
X173598838Y-92835713D02*
X173646457Y-92883332D01*
X173646457Y-92883332D02*
X173670266Y-92930951D01*
X173527409Y-92478571D02*
X173527409Y-92145238D01*
X173527409Y-92145238D02*
X174027409Y-92359523D01*
D11*
X144831009Y-107823809D02*
X144831009Y-107490476D01*
X145354819Y-107347619D02*
X145354819Y-107823809D01*
X145354819Y-107823809D02*
X144354819Y-107823809D01*
X144354819Y-107823809D02*
X144354819Y-107347619D01*
X144354819Y-107014285D02*
X145354819Y-106347619D01*
X144354819Y-106347619D02*
X145354819Y-107014285D01*
X144354819Y-106109523D02*
X144354819Y-105538095D01*
X145354819Y-105823809D02*
X144354819Y-105823809D01*
X145450057Y-105442857D02*
X145450057Y-104680952D01*
X145354819Y-104442856D02*
X144354819Y-104442856D01*
X144354819Y-104442856D02*
X144354819Y-104061904D01*
X144354819Y-104061904D02*
X144402438Y-103966666D01*
X144402438Y-103966666D02*
X144450057Y-103919047D01*
X144450057Y-103919047D02*
X144545295Y-103871428D01*
X144545295Y-103871428D02*
X144688152Y-103871428D01*
X144688152Y-103871428D02*
X144783390Y-103919047D01*
X144783390Y-103919047D02*
X144831009Y-103966666D01*
X144831009Y-103966666D02*
X144878628Y-104061904D01*
X144878628Y-104061904D02*
X144878628Y-104442856D01*
X144354819Y-103538094D02*
X145354819Y-103299999D01*
X145354819Y-103299999D02*
X144640533Y-103109523D01*
X144640533Y-103109523D02*
X145354819Y-102919047D01*
X145354819Y-102919047D02*
X144354819Y-102680952D01*
X145354819Y-101728571D02*
X144878628Y-102061904D01*
X145354819Y-102299999D02*
X144354819Y-102299999D01*
X144354819Y-102299999D02*
X144354819Y-101919047D01*
X144354819Y-101919047D02*
X144402438Y-101823809D01*
X144402438Y-101823809D02*
X144450057Y-101776190D01*
X144450057Y-101776190D02*
X144545295Y-101728571D01*
X144545295Y-101728571D02*
X144688152Y-101728571D01*
X144688152Y-101728571D02*
X144783390Y-101776190D01*
X144783390Y-101776190D02*
X144831009Y-101823809D01*
X144831009Y-101823809D02*
X144878628Y-101919047D01*
X144878628Y-101919047D02*
X144878628Y-102299999D01*
D10*
X155429790Y-106333333D02*
X155453600Y-106357142D01*
X155453600Y-106357142D02*
X155477409Y-106428571D01*
X155477409Y-106428571D02*
X155477409Y-106476190D01*
X155477409Y-106476190D02*
X155453600Y-106547618D01*
X155453600Y-106547618D02*
X155405980Y-106595237D01*
X155405980Y-106595237D02*
X155358361Y-106619047D01*
X155358361Y-106619047D02*
X155263123Y-106642856D01*
X155263123Y-106642856D02*
X155191695Y-106642856D01*
X155191695Y-106642856D02*
X155096457Y-106619047D01*
X155096457Y-106619047D02*
X155048838Y-106595237D01*
X155048838Y-106595237D02*
X155001219Y-106547618D01*
X155001219Y-106547618D02*
X154977409Y-106476190D01*
X154977409Y-106476190D02*
X154977409Y-106428571D01*
X154977409Y-106428571D02*
X155001219Y-106357142D01*
X155001219Y-106357142D02*
X155025028Y-106333333D01*
X154977409Y-106166666D02*
X154977409Y-105833333D01*
X154977409Y-105833333D02*
X155477409Y-106047618D01*
X151027409Y-111421428D02*
X150789314Y-111588094D01*
X151027409Y-111707142D02*
X150527409Y-111707142D01*
X150527409Y-111707142D02*
X150527409Y-111516666D01*
X150527409Y-111516666D02*
X150551219Y-111469047D01*
X150551219Y-111469047D02*
X150575028Y-111445237D01*
X150575028Y-111445237D02*
X150622647Y-111421428D01*
X150622647Y-111421428D02*
X150694076Y-111421428D01*
X150694076Y-111421428D02*
X150741695Y-111445237D01*
X150741695Y-111445237D02*
X150765504Y-111469047D01*
X150765504Y-111469047D02*
X150789314Y-111516666D01*
X150789314Y-111516666D02*
X150789314Y-111707142D01*
X151027409Y-110945237D02*
X151027409Y-111230951D01*
X151027409Y-111088094D02*
X150527409Y-111088094D01*
X150527409Y-111088094D02*
X150598838Y-111135713D01*
X150598838Y-111135713D02*
X150646457Y-111183332D01*
X150646457Y-111183332D02*
X150670266Y-111230951D01*
X151027409Y-110469047D02*
X151027409Y-110754761D01*
X151027409Y-110611904D02*
X150527409Y-110611904D01*
X150527409Y-110611904D02*
X150598838Y-110659523D01*
X150598838Y-110659523D02*
X150646457Y-110707142D01*
X150646457Y-110707142D02*
X150670266Y-110754761D01*
X166579790Y-106121428D02*
X166603600Y-106145237D01*
X166603600Y-106145237D02*
X166627409Y-106216666D01*
X166627409Y-106216666D02*
X166627409Y-106264285D01*
X166627409Y-106264285D02*
X166603600Y-106335713D01*
X166603600Y-106335713D02*
X166555980Y-106383332D01*
X166555980Y-106383332D02*
X166508361Y-106407142D01*
X166508361Y-106407142D02*
X166413123Y-106430951D01*
X166413123Y-106430951D02*
X166341695Y-106430951D01*
X166341695Y-106430951D02*
X166246457Y-106407142D01*
X166246457Y-106407142D02*
X166198838Y-106383332D01*
X166198838Y-106383332D02*
X166151219Y-106335713D01*
X166151219Y-106335713D02*
X166127409Y-106264285D01*
X166127409Y-106264285D02*
X166127409Y-106216666D01*
X166127409Y-106216666D02*
X166151219Y-106145237D01*
X166151219Y-106145237D02*
X166175028Y-106121428D01*
X166627409Y-105645237D02*
X166627409Y-105930951D01*
X166627409Y-105788094D02*
X166127409Y-105788094D01*
X166127409Y-105788094D02*
X166198838Y-105835713D01*
X166198838Y-105835713D02*
X166246457Y-105883332D01*
X166246457Y-105883332D02*
X166270266Y-105930951D01*
X166627409Y-105407142D02*
X166627409Y-105311904D01*
X166627409Y-105311904D02*
X166603600Y-105264285D01*
X166603600Y-105264285D02*
X166579790Y-105240476D01*
X166579790Y-105240476D02*
X166508361Y-105192857D01*
X166508361Y-105192857D02*
X166413123Y-105169047D01*
X166413123Y-105169047D02*
X166222647Y-105169047D01*
X166222647Y-105169047D02*
X166175028Y-105192857D01*
X166175028Y-105192857D02*
X166151219Y-105216666D01*
X166151219Y-105216666D02*
X166127409Y-105264285D01*
X166127409Y-105264285D02*
X166127409Y-105359523D01*
X166127409Y-105359523D02*
X166151219Y-105407142D01*
X166151219Y-105407142D02*
X166175028Y-105430952D01*
X166175028Y-105430952D02*
X166222647Y-105454761D01*
X166222647Y-105454761D02*
X166341695Y-105454761D01*
X166341695Y-105454761D02*
X166389314Y-105430952D01*
X166389314Y-105430952D02*
X166413123Y-105407142D01*
X166413123Y-105407142D02*
X166436933Y-105359523D01*
X166436933Y-105359523D02*
X166436933Y-105264285D01*
X166436933Y-105264285D02*
X166413123Y-105216666D01*
X166413123Y-105216666D02*
X166389314Y-105192857D01*
X166389314Y-105192857D02*
X166341695Y-105169047D01*
X156395584Y-115849847D02*
X156361913Y-115849847D01*
X156361913Y-115849847D02*
X156294569Y-115816175D01*
X156294569Y-115816175D02*
X156260897Y-115782503D01*
X156260897Y-115782503D02*
X156227226Y-115715160D01*
X156227226Y-115715160D02*
X156227226Y-115647816D01*
X156227226Y-115647816D02*
X156244062Y-115597308D01*
X156244062Y-115597308D02*
X156294569Y-115513129D01*
X156294569Y-115513129D02*
X156345077Y-115462621D01*
X156345077Y-115462621D02*
X156429256Y-115412114D01*
X156429256Y-115412114D02*
X156479764Y-115395278D01*
X156479764Y-115395278D02*
X156547107Y-115395278D01*
X156547107Y-115395278D02*
X156614451Y-115428950D01*
X156614451Y-115428950D02*
X156648123Y-115462621D01*
X156648123Y-115462621D02*
X156681794Y-115529965D01*
X156681794Y-115529965D02*
X156681794Y-115563637D01*
X156698630Y-116220236D02*
X156496600Y-116018205D01*
X156597615Y-116119221D02*
X156951168Y-115765667D01*
X156951168Y-115765667D02*
X156866989Y-115782503D01*
X156866989Y-115782503D02*
X156799645Y-115782503D01*
X156799645Y-115782503D02*
X156749138Y-115765667D01*
X157035347Y-116556953D02*
X156833317Y-116354923D01*
X156934332Y-116455938D02*
X157287886Y-116102384D01*
X157287886Y-116102384D02*
X157203706Y-116119220D01*
X157203706Y-116119220D02*
X157136363Y-116119220D01*
X157136363Y-116119220D02*
X157085855Y-116102384D01*
X147730952Y-118027409D02*
X147730952Y-117527409D01*
X147730952Y-117527409D02*
X147850000Y-117527409D01*
X147850000Y-117527409D02*
X147921428Y-117551219D01*
X147921428Y-117551219D02*
X147969047Y-117598838D01*
X147969047Y-117598838D02*
X147992857Y-117646457D01*
X147992857Y-117646457D02*
X148016666Y-117741695D01*
X148016666Y-117741695D02*
X148016666Y-117813123D01*
X148016666Y-117813123D02*
X147992857Y-117908361D01*
X147992857Y-117908361D02*
X147969047Y-117955980D01*
X147969047Y-117955980D02*
X147921428Y-118003600D01*
X147921428Y-118003600D02*
X147850000Y-118027409D01*
X147850000Y-118027409D02*
X147730952Y-118027409D01*
X148445238Y-117694076D02*
X148445238Y-118027409D01*
X148326190Y-117503600D02*
X148207143Y-117860742D01*
X148207143Y-117860742D02*
X148516666Y-117860742D01*
X148778241Y-116099846D02*
X149131794Y-115746293D01*
X149131794Y-115746293D02*
X149215974Y-115830472D01*
X149215974Y-115830472D02*
X149249645Y-115897816D01*
X149249645Y-115897816D02*
X149249645Y-115965159D01*
X149249645Y-115965159D02*
X149232809Y-116015667D01*
X149232809Y-116015667D02*
X149182302Y-116099846D01*
X149182302Y-116099846D02*
X149131794Y-116150354D01*
X149131794Y-116150354D02*
X149047615Y-116200862D01*
X149047615Y-116200862D02*
X148997107Y-116217698D01*
X148997107Y-116217698D02*
X148929764Y-116217698D01*
X148929764Y-116217698D02*
X148862420Y-116184026D01*
X148862420Y-116184026D02*
X148778241Y-116099846D01*
X149316989Y-116638594D02*
X149114958Y-116436564D01*
X149215974Y-116537579D02*
X149569527Y-116184026D01*
X149569527Y-116184026D02*
X149485348Y-116200862D01*
X149485348Y-116200862D02*
X149418004Y-116200862D01*
X149418004Y-116200862D02*
X149367496Y-116184026D01*
X181920833Y-109027409D02*
X181920833Y-109384552D01*
X181920833Y-109384552D02*
X181897024Y-109455980D01*
X181897024Y-109455980D02*
X181849405Y-109503600D01*
X181849405Y-109503600D02*
X181777976Y-109527409D01*
X181777976Y-109527409D02*
X181730357Y-109527409D01*
X182373214Y-109194076D02*
X182373214Y-109527409D01*
X182254166Y-109003600D02*
X182135119Y-109360742D01*
X182135119Y-109360742D02*
X182444642Y-109360742D01*
X159027409Y-86983333D02*
X158789314Y-87149999D01*
X159027409Y-87269047D02*
X158527409Y-87269047D01*
X158527409Y-87269047D02*
X158527409Y-87078571D01*
X158527409Y-87078571D02*
X158551219Y-87030952D01*
X158551219Y-87030952D02*
X158575028Y-87007142D01*
X158575028Y-87007142D02*
X158622647Y-86983333D01*
X158622647Y-86983333D02*
X158694076Y-86983333D01*
X158694076Y-86983333D02*
X158741695Y-87007142D01*
X158741695Y-87007142D02*
X158765504Y-87030952D01*
X158765504Y-87030952D02*
X158789314Y-87078571D01*
X158789314Y-87078571D02*
X158789314Y-87269047D01*
X158527409Y-86816666D02*
X158527409Y-86507142D01*
X158527409Y-86507142D02*
X158717885Y-86673809D01*
X158717885Y-86673809D02*
X158717885Y-86602380D01*
X158717885Y-86602380D02*
X158741695Y-86554761D01*
X158741695Y-86554761D02*
X158765504Y-86530952D01*
X158765504Y-86530952D02*
X158813123Y-86507142D01*
X158813123Y-86507142D02*
X158932171Y-86507142D01*
X158932171Y-86507142D02*
X158979790Y-86530952D01*
X158979790Y-86530952D02*
X159003600Y-86554761D01*
X159003600Y-86554761D02*
X159027409Y-86602380D01*
X159027409Y-86602380D02*
X159027409Y-86745237D01*
X159027409Y-86745237D02*
X159003600Y-86792856D01*
X159003600Y-86792856D02*
X158979790Y-86816666D01*
X148477409Y-98569047D02*
X147977409Y-98569047D01*
X147977409Y-98569047D02*
X147977409Y-98449999D01*
X147977409Y-98449999D02*
X148001219Y-98378571D01*
X148001219Y-98378571D02*
X148048838Y-98330952D01*
X148048838Y-98330952D02*
X148096457Y-98307142D01*
X148096457Y-98307142D02*
X148191695Y-98283333D01*
X148191695Y-98283333D02*
X148263123Y-98283333D01*
X148263123Y-98283333D02*
X148358361Y-98307142D01*
X148358361Y-98307142D02*
X148405980Y-98330952D01*
X148405980Y-98330952D02*
X148453600Y-98378571D01*
X148453600Y-98378571D02*
X148477409Y-98449999D01*
X148477409Y-98449999D02*
X148477409Y-98569047D01*
X147977409Y-97830952D02*
X147977409Y-98069047D01*
X147977409Y-98069047D02*
X148215504Y-98092856D01*
X148215504Y-98092856D02*
X148191695Y-98069047D01*
X148191695Y-98069047D02*
X148167885Y-98021428D01*
X148167885Y-98021428D02*
X148167885Y-97902380D01*
X148167885Y-97902380D02*
X148191695Y-97854761D01*
X148191695Y-97854761D02*
X148215504Y-97830952D01*
X148215504Y-97830952D02*
X148263123Y-97807142D01*
X148263123Y-97807142D02*
X148382171Y-97807142D01*
X148382171Y-97807142D02*
X148429790Y-97830952D01*
X148429790Y-97830952D02*
X148453600Y-97854761D01*
X148453600Y-97854761D02*
X148477409Y-97902380D01*
X148477409Y-97902380D02*
X148477409Y-98021428D01*
X148477409Y-98021428D02*
X148453600Y-98069047D01*
X148453600Y-98069047D02*
X148429790Y-98092856D01*
X162778571Y-102329790D02*
X162754762Y-102353600D01*
X162754762Y-102353600D02*
X162683333Y-102377409D01*
X162683333Y-102377409D02*
X162635714Y-102377409D01*
X162635714Y-102377409D02*
X162564286Y-102353600D01*
X162564286Y-102353600D02*
X162516667Y-102305980D01*
X162516667Y-102305980D02*
X162492857Y-102258361D01*
X162492857Y-102258361D02*
X162469048Y-102163123D01*
X162469048Y-102163123D02*
X162469048Y-102091695D01*
X162469048Y-102091695D02*
X162492857Y-101996457D01*
X162492857Y-101996457D02*
X162516667Y-101948838D01*
X162516667Y-101948838D02*
X162564286Y-101901219D01*
X162564286Y-101901219D02*
X162635714Y-101877409D01*
X162635714Y-101877409D02*
X162683333Y-101877409D01*
X162683333Y-101877409D02*
X162754762Y-101901219D01*
X162754762Y-101901219D02*
X162778571Y-101925028D01*
X162969048Y-101925028D02*
X162992857Y-101901219D01*
X162992857Y-101901219D02*
X163040476Y-101877409D01*
X163040476Y-101877409D02*
X163159524Y-101877409D01*
X163159524Y-101877409D02*
X163207143Y-101901219D01*
X163207143Y-101901219D02*
X163230952Y-101925028D01*
X163230952Y-101925028D02*
X163254762Y-101972647D01*
X163254762Y-101972647D02*
X163254762Y-102020266D01*
X163254762Y-102020266D02*
X163230952Y-102091695D01*
X163230952Y-102091695D02*
X162945238Y-102377409D01*
X162945238Y-102377409D02*
X163254762Y-102377409D01*
X163564285Y-101877409D02*
X163611904Y-101877409D01*
X163611904Y-101877409D02*
X163659523Y-101901219D01*
X163659523Y-101901219D02*
X163683333Y-101925028D01*
X163683333Y-101925028D02*
X163707142Y-101972647D01*
X163707142Y-101972647D02*
X163730952Y-102067885D01*
X163730952Y-102067885D02*
X163730952Y-102186933D01*
X163730952Y-102186933D02*
X163707142Y-102282171D01*
X163707142Y-102282171D02*
X163683333Y-102329790D01*
X163683333Y-102329790D02*
X163659523Y-102353600D01*
X163659523Y-102353600D02*
X163611904Y-102377409D01*
X163611904Y-102377409D02*
X163564285Y-102377409D01*
X163564285Y-102377409D02*
X163516666Y-102353600D01*
X163516666Y-102353600D02*
X163492857Y-102329790D01*
X163492857Y-102329790D02*
X163469047Y-102282171D01*
X163469047Y-102282171D02*
X163445238Y-102186933D01*
X163445238Y-102186933D02*
X163445238Y-102067885D01*
X163445238Y-102067885D02*
X163469047Y-101972647D01*
X163469047Y-101972647D02*
X163492857Y-101925028D01*
X163492857Y-101925028D02*
X163516666Y-101901219D01*
X163516666Y-101901219D02*
X163564285Y-101877409D01*
X150011913Y-97933518D02*
X150062420Y-97647308D01*
X149809882Y-97731488D02*
X150163436Y-97377934D01*
X150163436Y-97377934D02*
X150298123Y-97512621D01*
X150298123Y-97512621D02*
X150314958Y-97563129D01*
X150314958Y-97563129D02*
X150314958Y-97596801D01*
X150314958Y-97596801D02*
X150298123Y-97647308D01*
X150298123Y-97647308D02*
X150247615Y-97697816D01*
X150247615Y-97697816D02*
X150197107Y-97714652D01*
X150197107Y-97714652D02*
X150163436Y-97714652D01*
X150163436Y-97714652D02*
X150112928Y-97697816D01*
X150112928Y-97697816D02*
X149978241Y-97563129D01*
X150348630Y-98270236D02*
X150146600Y-98068205D01*
X150247615Y-98169221D02*
X150601168Y-97815667D01*
X150601168Y-97815667D02*
X150516989Y-97832503D01*
X150516989Y-97832503D02*
X150449645Y-97832503D01*
X150449645Y-97832503D02*
X150399138Y-97815667D01*
X151005229Y-98219728D02*
X150937886Y-98152384D01*
X150937886Y-98152384D02*
X150887378Y-98135549D01*
X150887378Y-98135549D02*
X150853706Y-98135549D01*
X150853706Y-98135549D02*
X150769527Y-98152384D01*
X150769527Y-98152384D02*
X150685347Y-98202892D01*
X150685347Y-98202892D02*
X150550660Y-98337579D01*
X150550660Y-98337579D02*
X150533825Y-98388087D01*
X150533825Y-98388087D02*
X150533825Y-98421758D01*
X150533825Y-98421758D02*
X150550660Y-98472266D01*
X150550660Y-98472266D02*
X150618004Y-98539610D01*
X150618004Y-98539610D02*
X150668512Y-98556445D01*
X150668512Y-98556445D02*
X150702183Y-98556445D01*
X150702183Y-98556445D02*
X150752691Y-98539610D01*
X150752691Y-98539610D02*
X150836870Y-98455430D01*
X150836870Y-98455430D02*
X150853706Y-98404923D01*
X150853706Y-98404923D02*
X150853706Y-98371251D01*
X150853706Y-98371251D02*
X150836870Y-98320743D01*
X150836870Y-98320743D02*
X150769527Y-98253400D01*
X150769527Y-98253400D02*
X150719019Y-98236564D01*
X150719019Y-98236564D02*
X150685347Y-98236564D01*
X150685347Y-98236564D02*
X150634840Y-98253400D01*
X170004790Y-116083333D02*
X170028600Y-116107142D01*
X170028600Y-116107142D02*
X170052409Y-116178571D01*
X170052409Y-116178571D02*
X170052409Y-116226190D01*
X170052409Y-116226190D02*
X170028600Y-116297618D01*
X170028600Y-116297618D02*
X169980980Y-116345237D01*
X169980980Y-116345237D02*
X169933361Y-116369047D01*
X169933361Y-116369047D02*
X169838123Y-116392856D01*
X169838123Y-116392856D02*
X169766695Y-116392856D01*
X169766695Y-116392856D02*
X169671457Y-116369047D01*
X169671457Y-116369047D02*
X169623838Y-116345237D01*
X169623838Y-116345237D02*
X169576219Y-116297618D01*
X169576219Y-116297618D02*
X169552409Y-116226190D01*
X169552409Y-116226190D02*
X169552409Y-116178571D01*
X169552409Y-116178571D02*
X169576219Y-116107142D01*
X169576219Y-116107142D02*
X169600028Y-116083333D01*
X169719076Y-115654761D02*
X170052409Y-115654761D01*
X169528600Y-115773809D02*
X169885742Y-115892856D01*
X169885742Y-115892856D02*
X169885742Y-115583333D01*
X160416666Y-101477409D02*
X160250000Y-101239314D01*
X160130952Y-101477409D02*
X160130952Y-100977409D01*
X160130952Y-100977409D02*
X160321428Y-100977409D01*
X160321428Y-100977409D02*
X160369047Y-101001219D01*
X160369047Y-101001219D02*
X160392857Y-101025028D01*
X160392857Y-101025028D02*
X160416666Y-101072647D01*
X160416666Y-101072647D02*
X160416666Y-101144076D01*
X160416666Y-101144076D02*
X160392857Y-101191695D01*
X160392857Y-101191695D02*
X160369047Y-101215504D01*
X160369047Y-101215504D02*
X160321428Y-101239314D01*
X160321428Y-101239314D02*
X160130952Y-101239314D01*
X160702381Y-101191695D02*
X160654762Y-101167885D01*
X160654762Y-101167885D02*
X160630952Y-101144076D01*
X160630952Y-101144076D02*
X160607143Y-101096457D01*
X160607143Y-101096457D02*
X160607143Y-101072647D01*
X160607143Y-101072647D02*
X160630952Y-101025028D01*
X160630952Y-101025028D02*
X160654762Y-101001219D01*
X160654762Y-101001219D02*
X160702381Y-100977409D01*
X160702381Y-100977409D02*
X160797619Y-100977409D01*
X160797619Y-100977409D02*
X160845238Y-101001219D01*
X160845238Y-101001219D02*
X160869047Y-101025028D01*
X160869047Y-101025028D02*
X160892857Y-101072647D01*
X160892857Y-101072647D02*
X160892857Y-101096457D01*
X160892857Y-101096457D02*
X160869047Y-101144076D01*
X160869047Y-101144076D02*
X160845238Y-101167885D01*
X160845238Y-101167885D02*
X160797619Y-101191695D01*
X160797619Y-101191695D02*
X160702381Y-101191695D01*
X160702381Y-101191695D02*
X160654762Y-101215504D01*
X160654762Y-101215504D02*
X160630952Y-101239314D01*
X160630952Y-101239314D02*
X160607143Y-101286933D01*
X160607143Y-101286933D02*
X160607143Y-101382171D01*
X160607143Y-101382171D02*
X160630952Y-101429790D01*
X160630952Y-101429790D02*
X160654762Y-101453600D01*
X160654762Y-101453600D02*
X160702381Y-101477409D01*
X160702381Y-101477409D02*
X160797619Y-101477409D01*
X160797619Y-101477409D02*
X160845238Y-101453600D01*
X160845238Y-101453600D02*
X160869047Y-101429790D01*
X160869047Y-101429790D02*
X160892857Y-101382171D01*
X160892857Y-101382171D02*
X160892857Y-101286933D01*
X160892857Y-101286933D02*
X160869047Y-101239314D01*
X160869047Y-101239314D02*
X160845238Y-101215504D01*
X160845238Y-101215504D02*
X160797619Y-101191695D01*
X152078241Y-112762409D02*
X152431794Y-112408856D01*
X152431794Y-112408856D02*
X152515974Y-112493035D01*
X152515974Y-112493035D02*
X152549645Y-112560379D01*
X152549645Y-112560379D02*
X152549645Y-112627722D01*
X152549645Y-112627722D02*
X152532809Y-112678230D01*
X152532809Y-112678230D02*
X152482302Y-112762409D01*
X152482302Y-112762409D02*
X152431794Y-112812917D01*
X152431794Y-112812917D02*
X152347615Y-112863425D01*
X152347615Y-112863425D02*
X152297107Y-112880261D01*
X152297107Y-112880261D02*
X152229764Y-112880261D01*
X152229764Y-112880261D02*
X152162420Y-112846589D01*
X152162420Y-112846589D02*
X152078241Y-112762409D01*
X152734840Y-112779245D02*
X152768512Y-112779245D01*
X152768512Y-112779245D02*
X152819019Y-112796081D01*
X152819019Y-112796081D02*
X152903199Y-112880261D01*
X152903199Y-112880261D02*
X152920035Y-112930768D01*
X152920035Y-112930768D02*
X152920035Y-112964440D01*
X152920035Y-112964440D02*
X152903199Y-113014948D01*
X152903199Y-113014948D02*
X152869527Y-113048619D01*
X152869527Y-113048619D02*
X152802183Y-113082291D01*
X152802183Y-113082291D02*
X152398122Y-113082291D01*
X152398122Y-113082291D02*
X152616989Y-113301157D01*
X181920833Y-95827409D02*
X181920833Y-96184552D01*
X181920833Y-96184552D02*
X181897024Y-96255980D01*
X181897024Y-96255980D02*
X181849405Y-96303600D01*
X181849405Y-96303600D02*
X181777976Y-96327409D01*
X181777976Y-96327409D02*
X181730357Y-96327409D01*
X182111309Y-95827409D02*
X182420833Y-95827409D01*
X182420833Y-95827409D02*
X182254166Y-96017885D01*
X182254166Y-96017885D02*
X182325595Y-96017885D01*
X182325595Y-96017885D02*
X182373214Y-96041695D01*
X182373214Y-96041695D02*
X182397023Y-96065504D01*
X182397023Y-96065504D02*
X182420833Y-96113123D01*
X182420833Y-96113123D02*
X182420833Y-96232171D01*
X182420833Y-96232171D02*
X182397023Y-96279790D01*
X182397023Y-96279790D02*
X182373214Y-96303600D01*
X182373214Y-96303600D02*
X182325595Y-96327409D01*
X182325595Y-96327409D02*
X182182738Y-96327409D01*
X182182738Y-96327409D02*
X182135119Y-96303600D01*
X182135119Y-96303600D02*
X182111309Y-96279790D01*
X162012749Y-116826623D02*
X162298959Y-117112833D01*
X162298959Y-117112833D02*
X162349466Y-117129669D01*
X162349466Y-117129669D02*
X162383138Y-117129669D01*
X162383138Y-117129669D02*
X162433646Y-117112833D01*
X162433646Y-117112833D02*
X162500989Y-117045489D01*
X162500989Y-117045489D02*
X162517825Y-116994982D01*
X162517825Y-116994982D02*
X162517825Y-116961310D01*
X162517825Y-116961310D02*
X162500989Y-116910802D01*
X162500989Y-116910802D02*
X162214779Y-116624592D01*
X162921887Y-116624592D02*
X162719856Y-116826623D01*
X162820871Y-116725607D02*
X162467318Y-116372054D01*
X162467318Y-116372054D02*
X162484154Y-116456233D01*
X162484154Y-116456233D02*
X162484154Y-116523577D01*
X162484154Y-116523577D02*
X162467318Y-116574084D01*
X176019047Y-100227409D02*
X176019047Y-100632171D01*
X176019047Y-100632171D02*
X176042857Y-100679790D01*
X176042857Y-100679790D02*
X176066666Y-100703600D01*
X176066666Y-100703600D02*
X176114285Y-100727409D01*
X176114285Y-100727409D02*
X176209523Y-100727409D01*
X176209523Y-100727409D02*
X176257142Y-100703600D01*
X176257142Y-100703600D02*
X176280952Y-100679790D01*
X176280952Y-100679790D02*
X176304761Y-100632171D01*
X176304761Y-100632171D02*
X176304761Y-100227409D01*
X176519048Y-100275028D02*
X176542857Y-100251219D01*
X176542857Y-100251219D02*
X176590476Y-100227409D01*
X176590476Y-100227409D02*
X176709524Y-100227409D01*
X176709524Y-100227409D02*
X176757143Y-100251219D01*
X176757143Y-100251219D02*
X176780952Y-100275028D01*
X176780952Y-100275028D02*
X176804762Y-100322647D01*
X176804762Y-100322647D02*
X176804762Y-100370266D01*
X176804762Y-100370266D02*
X176780952Y-100441695D01*
X176780952Y-100441695D02*
X176495238Y-100727409D01*
X176495238Y-100727409D02*
X176804762Y-100727409D01*
X145278571Y-119077409D02*
X145111905Y-118839314D01*
X144992857Y-119077409D02*
X144992857Y-118577409D01*
X144992857Y-118577409D02*
X145183333Y-118577409D01*
X145183333Y-118577409D02*
X145230952Y-118601219D01*
X145230952Y-118601219D02*
X145254762Y-118625028D01*
X145254762Y-118625028D02*
X145278571Y-118672647D01*
X145278571Y-118672647D02*
X145278571Y-118744076D01*
X145278571Y-118744076D02*
X145254762Y-118791695D01*
X145254762Y-118791695D02*
X145230952Y-118815504D01*
X145230952Y-118815504D02*
X145183333Y-118839314D01*
X145183333Y-118839314D02*
X144992857Y-118839314D01*
X145754762Y-119077409D02*
X145469048Y-119077409D01*
X145611905Y-119077409D02*
X145611905Y-118577409D01*
X145611905Y-118577409D02*
X145564286Y-118648838D01*
X145564286Y-118648838D02*
X145516667Y-118696457D01*
X145516667Y-118696457D02*
X145469048Y-118720266D01*
X146207142Y-118577409D02*
X145969047Y-118577409D01*
X145969047Y-118577409D02*
X145945238Y-118815504D01*
X145945238Y-118815504D02*
X145969047Y-118791695D01*
X145969047Y-118791695D02*
X146016666Y-118767885D01*
X146016666Y-118767885D02*
X146135714Y-118767885D01*
X146135714Y-118767885D02*
X146183333Y-118791695D01*
X146183333Y-118791695D02*
X146207142Y-118815504D01*
X146207142Y-118815504D02*
X146230952Y-118863123D01*
X146230952Y-118863123D02*
X146230952Y-118982171D01*
X146230952Y-118982171D02*
X146207142Y-119029790D01*
X146207142Y-119029790D02*
X146183333Y-119053600D01*
X146183333Y-119053600D02*
X146135714Y-119077409D01*
X146135714Y-119077409D02*
X146016666Y-119077409D01*
X146016666Y-119077409D02*
X145969047Y-119053600D01*
X145969047Y-119053600D02*
X145945238Y-119029790D01*
X154319047Y-104327409D02*
X154319047Y-104732171D01*
X154319047Y-104732171D02*
X154342857Y-104779790D01*
X154342857Y-104779790D02*
X154366666Y-104803600D01*
X154366666Y-104803600D02*
X154414285Y-104827409D01*
X154414285Y-104827409D02*
X154509523Y-104827409D01*
X154509523Y-104827409D02*
X154557142Y-104803600D01*
X154557142Y-104803600D02*
X154580952Y-104779790D01*
X154580952Y-104779790D02*
X154604761Y-104732171D01*
X154604761Y-104732171D02*
X154604761Y-104327409D01*
X154795238Y-104327409D02*
X155104762Y-104327409D01*
X155104762Y-104327409D02*
X154938095Y-104517885D01*
X154938095Y-104517885D02*
X155009524Y-104517885D01*
X155009524Y-104517885D02*
X155057143Y-104541695D01*
X155057143Y-104541695D02*
X155080952Y-104565504D01*
X155080952Y-104565504D02*
X155104762Y-104613123D01*
X155104762Y-104613123D02*
X155104762Y-104732171D01*
X155104762Y-104732171D02*
X155080952Y-104779790D01*
X155080952Y-104779790D02*
X155057143Y-104803600D01*
X155057143Y-104803600D02*
X155009524Y-104827409D01*
X155009524Y-104827409D02*
X154866667Y-104827409D01*
X154866667Y-104827409D02*
X154819048Y-104803600D01*
X154819048Y-104803600D02*
X154795238Y-104779790D01*
D11*
X162254819Y-87742856D02*
X161254819Y-87742856D01*
X161254819Y-87742856D02*
X162254819Y-87171428D01*
X162254819Y-87171428D02*
X161254819Y-87171428D01*
X162254819Y-86123809D02*
X161778628Y-86457142D01*
X162254819Y-86695237D02*
X161254819Y-86695237D01*
X161254819Y-86695237D02*
X161254819Y-86314285D01*
X161254819Y-86314285D02*
X161302438Y-86219047D01*
X161302438Y-86219047D02*
X161350057Y-86171428D01*
X161350057Y-86171428D02*
X161445295Y-86123809D01*
X161445295Y-86123809D02*
X161588152Y-86123809D01*
X161588152Y-86123809D02*
X161683390Y-86171428D01*
X161683390Y-86171428D02*
X161731009Y-86219047D01*
X161731009Y-86219047D02*
X161778628Y-86314285D01*
X161778628Y-86314285D02*
X161778628Y-86695237D01*
X162207200Y-85742856D02*
X162254819Y-85599999D01*
X162254819Y-85599999D02*
X162254819Y-85361904D01*
X162254819Y-85361904D02*
X162207200Y-85266666D01*
X162207200Y-85266666D02*
X162159580Y-85219047D01*
X162159580Y-85219047D02*
X162064342Y-85171428D01*
X162064342Y-85171428D02*
X161969104Y-85171428D01*
X161969104Y-85171428D02*
X161873866Y-85219047D01*
X161873866Y-85219047D02*
X161826247Y-85266666D01*
X161826247Y-85266666D02*
X161778628Y-85361904D01*
X161778628Y-85361904D02*
X161731009Y-85552380D01*
X161731009Y-85552380D02*
X161683390Y-85647618D01*
X161683390Y-85647618D02*
X161635771Y-85695237D01*
X161635771Y-85695237D02*
X161540533Y-85742856D01*
X161540533Y-85742856D02*
X161445295Y-85742856D01*
X161445295Y-85742856D02*
X161350057Y-85695237D01*
X161350057Y-85695237D02*
X161302438Y-85647618D01*
X161302438Y-85647618D02*
X161254819Y-85552380D01*
X161254819Y-85552380D02*
X161254819Y-85314285D01*
X161254819Y-85314285D02*
X161302438Y-85171428D01*
X161254819Y-84885713D02*
X161254819Y-84314285D01*
X162254819Y-84599999D02*
X161254819Y-84599999D01*
D10*
X162429790Y-118833333D02*
X162453600Y-118857142D01*
X162453600Y-118857142D02*
X162477409Y-118928571D01*
X162477409Y-118928571D02*
X162477409Y-118976190D01*
X162477409Y-118976190D02*
X162453600Y-119047618D01*
X162453600Y-119047618D02*
X162405980Y-119095237D01*
X162405980Y-119095237D02*
X162358361Y-119119047D01*
X162358361Y-119119047D02*
X162263123Y-119142856D01*
X162263123Y-119142856D02*
X162191695Y-119142856D01*
X162191695Y-119142856D02*
X162096457Y-119119047D01*
X162096457Y-119119047D02*
X162048838Y-119095237D01*
X162048838Y-119095237D02*
X162001219Y-119047618D01*
X162001219Y-119047618D02*
X161977409Y-118976190D01*
X161977409Y-118976190D02*
X161977409Y-118928571D01*
X161977409Y-118928571D02*
X162001219Y-118857142D01*
X162001219Y-118857142D02*
X162025028Y-118833333D01*
X162477409Y-118357142D02*
X162477409Y-118642856D01*
X162477409Y-118499999D02*
X161977409Y-118499999D01*
X161977409Y-118499999D02*
X162048838Y-118547618D01*
X162048838Y-118547618D02*
X162096457Y-118595237D01*
X162096457Y-118595237D02*
X162120266Y-118642856D01*
X163666666Y-97477409D02*
X163500000Y-97239314D01*
X163380952Y-97477409D02*
X163380952Y-96977409D01*
X163380952Y-96977409D02*
X163571428Y-96977409D01*
X163571428Y-96977409D02*
X163619047Y-97001219D01*
X163619047Y-97001219D02*
X163642857Y-97025028D01*
X163642857Y-97025028D02*
X163666666Y-97072647D01*
X163666666Y-97072647D02*
X163666666Y-97144076D01*
X163666666Y-97144076D02*
X163642857Y-97191695D01*
X163642857Y-97191695D02*
X163619047Y-97215504D01*
X163619047Y-97215504D02*
X163571428Y-97239314D01*
X163571428Y-97239314D02*
X163380952Y-97239314D01*
X163904762Y-97477409D02*
X164000000Y-97477409D01*
X164000000Y-97477409D02*
X164047619Y-97453600D01*
X164047619Y-97453600D02*
X164071428Y-97429790D01*
X164071428Y-97429790D02*
X164119047Y-97358361D01*
X164119047Y-97358361D02*
X164142857Y-97263123D01*
X164142857Y-97263123D02*
X164142857Y-97072647D01*
X164142857Y-97072647D02*
X164119047Y-97025028D01*
X164119047Y-97025028D02*
X164095238Y-97001219D01*
X164095238Y-97001219D02*
X164047619Y-96977409D01*
X164047619Y-96977409D02*
X163952381Y-96977409D01*
X163952381Y-96977409D02*
X163904762Y-97001219D01*
X163904762Y-97001219D02*
X163880952Y-97025028D01*
X163880952Y-97025028D02*
X163857143Y-97072647D01*
X163857143Y-97072647D02*
X163857143Y-97191695D01*
X163857143Y-97191695D02*
X163880952Y-97239314D01*
X163880952Y-97239314D02*
X163904762Y-97263123D01*
X163904762Y-97263123D02*
X163952381Y-97286933D01*
X163952381Y-97286933D02*
X164047619Y-97286933D01*
X164047619Y-97286933D02*
X164095238Y-97263123D01*
X164095238Y-97263123D02*
X164119047Y-97239314D01*
X164119047Y-97239314D02*
X164142857Y-97191695D01*
X153783334Y-101165504D02*
X153616667Y-101165504D01*
X153616667Y-101427409D02*
X153616667Y-100927409D01*
X153616667Y-100927409D02*
X153854762Y-100927409D01*
X154211905Y-101165504D02*
X154283333Y-101189314D01*
X154283333Y-101189314D02*
X154307143Y-101213123D01*
X154307143Y-101213123D02*
X154330952Y-101260742D01*
X154330952Y-101260742D02*
X154330952Y-101332171D01*
X154330952Y-101332171D02*
X154307143Y-101379790D01*
X154307143Y-101379790D02*
X154283333Y-101403600D01*
X154283333Y-101403600D02*
X154235714Y-101427409D01*
X154235714Y-101427409D02*
X154045238Y-101427409D01*
X154045238Y-101427409D02*
X154045238Y-100927409D01*
X154045238Y-100927409D02*
X154211905Y-100927409D01*
X154211905Y-100927409D02*
X154259524Y-100951219D01*
X154259524Y-100951219D02*
X154283333Y-100975028D01*
X154283333Y-100975028D02*
X154307143Y-101022647D01*
X154307143Y-101022647D02*
X154307143Y-101070266D01*
X154307143Y-101070266D02*
X154283333Y-101117885D01*
X154283333Y-101117885D02*
X154259524Y-101141695D01*
X154259524Y-101141695D02*
X154211905Y-101165504D01*
X154211905Y-101165504D02*
X154045238Y-101165504D01*
X154807143Y-101427409D02*
X154521429Y-101427409D01*
X154664286Y-101427409D02*
X154664286Y-100927409D01*
X154664286Y-100927409D02*
X154616667Y-100998838D01*
X154616667Y-100998838D02*
X154569048Y-101046457D01*
X154569048Y-101046457D02*
X154521429Y-101070266D01*
X141830952Y-118827409D02*
X141830952Y-118327409D01*
X141830952Y-118327409D02*
X141950000Y-118327409D01*
X141950000Y-118327409D02*
X142021428Y-118351219D01*
X142021428Y-118351219D02*
X142069047Y-118398838D01*
X142069047Y-118398838D02*
X142092857Y-118446457D01*
X142092857Y-118446457D02*
X142116666Y-118541695D01*
X142116666Y-118541695D02*
X142116666Y-118613123D01*
X142116666Y-118613123D02*
X142092857Y-118708361D01*
X142092857Y-118708361D02*
X142069047Y-118755980D01*
X142069047Y-118755980D02*
X142021428Y-118803600D01*
X142021428Y-118803600D02*
X141950000Y-118827409D01*
X141950000Y-118827409D02*
X141830952Y-118827409D01*
X142545238Y-118327409D02*
X142450000Y-118327409D01*
X142450000Y-118327409D02*
X142402381Y-118351219D01*
X142402381Y-118351219D02*
X142378571Y-118375028D01*
X142378571Y-118375028D02*
X142330952Y-118446457D01*
X142330952Y-118446457D02*
X142307143Y-118541695D01*
X142307143Y-118541695D02*
X142307143Y-118732171D01*
X142307143Y-118732171D02*
X142330952Y-118779790D01*
X142330952Y-118779790D02*
X142354762Y-118803600D01*
X142354762Y-118803600D02*
X142402381Y-118827409D01*
X142402381Y-118827409D02*
X142497619Y-118827409D01*
X142497619Y-118827409D02*
X142545238Y-118803600D01*
X142545238Y-118803600D02*
X142569047Y-118779790D01*
X142569047Y-118779790D02*
X142592857Y-118732171D01*
X142592857Y-118732171D02*
X142592857Y-118613123D01*
X142592857Y-118613123D02*
X142569047Y-118565504D01*
X142569047Y-118565504D02*
X142545238Y-118541695D01*
X142545238Y-118541695D02*
X142497619Y-118517885D01*
X142497619Y-118517885D02*
X142402381Y-118517885D01*
X142402381Y-118517885D02*
X142354762Y-118541695D01*
X142354762Y-118541695D02*
X142330952Y-118565504D01*
X142330952Y-118565504D02*
X142307143Y-118613123D01*
X164927409Y-109383333D02*
X164689314Y-109549999D01*
X164927409Y-109669047D02*
X164427409Y-109669047D01*
X164427409Y-109669047D02*
X164427409Y-109478571D01*
X164427409Y-109478571D02*
X164451219Y-109430952D01*
X164451219Y-109430952D02*
X164475028Y-109407142D01*
X164475028Y-109407142D02*
X164522647Y-109383333D01*
X164522647Y-109383333D02*
X164594076Y-109383333D01*
X164594076Y-109383333D02*
X164641695Y-109407142D01*
X164641695Y-109407142D02*
X164665504Y-109430952D01*
X164665504Y-109430952D02*
X164689314Y-109478571D01*
X164689314Y-109478571D02*
X164689314Y-109669047D01*
X164427409Y-108930952D02*
X164427409Y-109169047D01*
X164427409Y-109169047D02*
X164665504Y-109192856D01*
X164665504Y-109192856D02*
X164641695Y-109169047D01*
X164641695Y-109169047D02*
X164617885Y-109121428D01*
X164617885Y-109121428D02*
X164617885Y-109002380D01*
X164617885Y-109002380D02*
X164641695Y-108954761D01*
X164641695Y-108954761D02*
X164665504Y-108930952D01*
X164665504Y-108930952D02*
X164713123Y-108907142D01*
X164713123Y-108907142D02*
X164832171Y-108907142D01*
X164832171Y-108907142D02*
X164879790Y-108930952D01*
X164879790Y-108930952D02*
X164903600Y-108954761D01*
X164903600Y-108954761D02*
X164927409Y-109002380D01*
X164927409Y-109002380D02*
X164927409Y-109121428D01*
X164927409Y-109121428D02*
X164903600Y-109169047D01*
X164903600Y-109169047D02*
X164879790Y-109192856D01*
X167579790Y-92721428D02*
X167603600Y-92745237D01*
X167603600Y-92745237D02*
X167627409Y-92816666D01*
X167627409Y-92816666D02*
X167627409Y-92864285D01*
X167627409Y-92864285D02*
X167603600Y-92935713D01*
X167603600Y-92935713D02*
X167555980Y-92983332D01*
X167555980Y-92983332D02*
X167508361Y-93007142D01*
X167508361Y-93007142D02*
X167413123Y-93030951D01*
X167413123Y-93030951D02*
X167341695Y-93030951D01*
X167341695Y-93030951D02*
X167246457Y-93007142D01*
X167246457Y-93007142D02*
X167198838Y-92983332D01*
X167198838Y-92983332D02*
X167151219Y-92935713D01*
X167151219Y-92935713D02*
X167127409Y-92864285D01*
X167127409Y-92864285D02*
X167127409Y-92816666D01*
X167127409Y-92816666D02*
X167151219Y-92745237D01*
X167151219Y-92745237D02*
X167175028Y-92721428D01*
X167175028Y-92530951D02*
X167151219Y-92507142D01*
X167151219Y-92507142D02*
X167127409Y-92459523D01*
X167127409Y-92459523D02*
X167127409Y-92340475D01*
X167127409Y-92340475D02*
X167151219Y-92292856D01*
X167151219Y-92292856D02*
X167175028Y-92269047D01*
X167175028Y-92269047D02*
X167222647Y-92245237D01*
X167222647Y-92245237D02*
X167270266Y-92245237D01*
X167270266Y-92245237D02*
X167341695Y-92269047D01*
X167341695Y-92269047D02*
X167627409Y-92554761D01*
X167627409Y-92554761D02*
X167627409Y-92245237D01*
X167175028Y-92054761D02*
X167151219Y-92030952D01*
X167151219Y-92030952D02*
X167127409Y-91983333D01*
X167127409Y-91983333D02*
X167127409Y-91864285D01*
X167127409Y-91864285D02*
X167151219Y-91816666D01*
X167151219Y-91816666D02*
X167175028Y-91792857D01*
X167175028Y-91792857D02*
X167222647Y-91769047D01*
X167222647Y-91769047D02*
X167270266Y-91769047D01*
X167270266Y-91769047D02*
X167341695Y-91792857D01*
X167341695Y-91792857D02*
X167627409Y-92078571D01*
X167627409Y-92078571D02*
X167627409Y-91769047D01*
X166679790Y-99071428D02*
X166703600Y-99095237D01*
X166703600Y-99095237D02*
X166727409Y-99166666D01*
X166727409Y-99166666D02*
X166727409Y-99214285D01*
X166727409Y-99214285D02*
X166703600Y-99285713D01*
X166703600Y-99285713D02*
X166655980Y-99333332D01*
X166655980Y-99333332D02*
X166608361Y-99357142D01*
X166608361Y-99357142D02*
X166513123Y-99380951D01*
X166513123Y-99380951D02*
X166441695Y-99380951D01*
X166441695Y-99380951D02*
X166346457Y-99357142D01*
X166346457Y-99357142D02*
X166298838Y-99333332D01*
X166298838Y-99333332D02*
X166251219Y-99285713D01*
X166251219Y-99285713D02*
X166227409Y-99214285D01*
X166227409Y-99214285D02*
X166227409Y-99166666D01*
X166227409Y-99166666D02*
X166251219Y-99095237D01*
X166251219Y-99095237D02*
X166275028Y-99071428D01*
X166727409Y-98595237D02*
X166727409Y-98880951D01*
X166727409Y-98738094D02*
X166227409Y-98738094D01*
X166227409Y-98738094D02*
X166298838Y-98785713D01*
X166298838Y-98785713D02*
X166346457Y-98833332D01*
X166346457Y-98833332D02*
X166370266Y-98880951D01*
X166441695Y-98309523D02*
X166417885Y-98357142D01*
X166417885Y-98357142D02*
X166394076Y-98380952D01*
X166394076Y-98380952D02*
X166346457Y-98404761D01*
X166346457Y-98404761D02*
X166322647Y-98404761D01*
X166322647Y-98404761D02*
X166275028Y-98380952D01*
X166275028Y-98380952D02*
X166251219Y-98357142D01*
X166251219Y-98357142D02*
X166227409Y-98309523D01*
X166227409Y-98309523D02*
X166227409Y-98214285D01*
X166227409Y-98214285D02*
X166251219Y-98166666D01*
X166251219Y-98166666D02*
X166275028Y-98142857D01*
X166275028Y-98142857D02*
X166322647Y-98119047D01*
X166322647Y-98119047D02*
X166346457Y-98119047D01*
X166346457Y-98119047D02*
X166394076Y-98142857D01*
X166394076Y-98142857D02*
X166417885Y-98166666D01*
X166417885Y-98166666D02*
X166441695Y-98214285D01*
X166441695Y-98214285D02*
X166441695Y-98309523D01*
X166441695Y-98309523D02*
X166465504Y-98357142D01*
X166465504Y-98357142D02*
X166489314Y-98380952D01*
X166489314Y-98380952D02*
X166536933Y-98404761D01*
X166536933Y-98404761D02*
X166632171Y-98404761D01*
X166632171Y-98404761D02*
X166679790Y-98380952D01*
X166679790Y-98380952D02*
X166703600Y-98357142D01*
X166703600Y-98357142D02*
X166727409Y-98309523D01*
X166727409Y-98309523D02*
X166727409Y-98214285D01*
X166727409Y-98214285D02*
X166703600Y-98166666D01*
X166703600Y-98166666D02*
X166679790Y-98142857D01*
X166679790Y-98142857D02*
X166632171Y-98119047D01*
X166632171Y-98119047D02*
X166536933Y-98119047D01*
X166536933Y-98119047D02*
X166489314Y-98142857D01*
X166489314Y-98142857D02*
X166465504Y-98166666D01*
X166465504Y-98166666D02*
X166441695Y-98214285D01*
D12*
%TO.C,R17*%
X155552500Y-119637258D02*
X155552500Y-119162742D01*
X156597500Y-119637258D02*
X156597500Y-119162742D01*
%TO.C,C27*%
X168434420Y-112690000D02*
X168715580Y-112690000D01*
X168434420Y-113710000D02*
X168715580Y-113710000D01*
%TO.C,C9*%
X165789970Y-111261219D02*
X165988781Y-111460030D01*
X166511219Y-110539970D02*
X166710030Y-110738781D01*
%TO.C,FB3*%
X168662122Y-117640000D02*
X167862878Y-117640000D01*
X168662122Y-118760000D02*
X167862878Y-118760000D01*
%TO.C,C12*%
X158239970Y-96938781D02*
X158438781Y-96739970D01*
X158961219Y-97660030D02*
X159160030Y-97461219D01*
%TO.C,C23*%
X173338748Y-103565000D02*
X173861252Y-103565000D01*
X173338748Y-105035000D02*
X173861252Y-105035000D01*
%TO.C,L1*%
X146690000Y-87699622D02*
X146690000Y-86900378D01*
X147810000Y-87699622D02*
X147810000Y-86900378D01*
%TO.C,C15*%
X171484420Y-98390000D02*
X171765580Y-98390000D01*
X171484420Y-99410000D02*
X171765580Y-99410000D01*
%TO.C,R7*%
X161777500Y-105737258D02*
X161777500Y-105262742D01*
X162822500Y-105737258D02*
X162822500Y-105262742D01*
D11*
%TO.C,X1*%
X168090000Y-93310000D02*
X168090000Y-93820000D01*
X168320000Y-93570000D02*
X171650000Y-93570000D01*
X168350000Y-97630000D02*
X168320000Y-93570000D01*
X168350000Y-97630000D02*
X168350000Y-97630000D01*
X168600000Y-93310000D02*
X168090000Y-93310000D01*
X170000000Y-97630000D02*
X168350000Y-97630000D01*
X171650000Y-93570000D02*
X171650000Y-97630000D01*
X171650000Y-97630000D02*
X170000000Y-97630000D01*
D12*
%TO.C,C8*%
X156490000Y-107140580D02*
X156490000Y-106859420D01*
X157510000Y-107140580D02*
X157510000Y-106859420D01*
D13*
%TO.C,J8*%
X130812500Y-100500000D02*
X130812500Y-95120000D01*
X130822500Y-100490000D02*
X130812500Y-100500000D01*
X131372500Y-95140000D02*
X130812500Y-95140000D01*
X131372500Y-95140000D02*
X138492500Y-95140000D01*
X131372500Y-100490000D02*
X130822500Y-100490000D01*
X131372500Y-100490000D02*
X131372500Y-95140000D01*
X131372500Y-100490000D02*
X138492500Y-100470000D01*
X132242500Y-95140000D02*
X131372500Y-100490000D01*
X132242500Y-100490000D02*
X132242500Y-95140000D01*
X133132500Y-95140000D02*
X132242500Y-100490000D01*
X133132500Y-100490000D02*
X133132500Y-95140000D01*
X134052500Y-95140000D02*
X133132500Y-100490000D01*
X134052500Y-100490000D02*
X134052500Y-95140000D01*
X134982500Y-95140000D02*
X134052500Y-100490000D01*
X134982500Y-100490000D02*
X134982500Y-95140000D01*
X138492500Y-101050000D02*
X138492500Y-94550000D01*
D12*
%TO.C,C3*%
X148990000Y-105965580D02*
X148990000Y-105684420D01*
X150010000Y-105965580D02*
X150010000Y-105684420D01*
%TO.C,R18*%
X163327500Y-105737258D02*
X163327500Y-105262742D01*
X164372500Y-105737258D02*
X164372500Y-105262742D01*
%TO.C,D3*%
X148890000Y-107740000D02*
X148890000Y-109150000D01*
X150110000Y-107740000D02*
X148890000Y-107740000D01*
X150110000Y-107740000D02*
X150110000Y-109150000D01*
%TO.C,C6*%
X156490000Y-104115580D02*
X156490000Y-103834420D01*
X157510000Y-104115580D02*
X157510000Y-103834420D01*
%TO.C,R13*%
X152377500Y-119162742D02*
X152377500Y-119637258D01*
X153422500Y-119162742D02*
X153422500Y-119637258D01*
%TO.C,C10*%
X165789970Y-114511219D02*
X165988781Y-114710030D01*
X166511219Y-113789970D02*
X166710030Y-113988781D01*
%TO.C,R10*%
X164977500Y-96487258D02*
X164977500Y-96012742D01*
X166022500Y-96487258D02*
X166022500Y-96012742D01*
D13*
%TO.C,J5*%
X138595000Y-108850000D02*
X138595000Y-117750000D01*
X138595000Y-117750000D02*
X140105000Y-117750000D01*
X140105000Y-108850000D02*
X138595000Y-108850000D01*
X142345000Y-117750000D02*
X144105000Y-117750000D01*
X144105000Y-108850000D02*
X142345000Y-108850000D01*
D12*
%TO.C,C28*%
X173284420Y-105583333D02*
X173565580Y-105583333D01*
X173284420Y-106603333D02*
X173565580Y-106603333D01*
%TO.C,C14*%
X173084420Y-110490000D02*
X173365580Y-110490000D01*
X173084420Y-111510000D02*
X173365580Y-111510000D01*
%TO.C,C21*%
X164990000Y-101459420D02*
X164990000Y-101740580D01*
X166010000Y-101459420D02*
X166010000Y-101740580D01*
%TO.C,R2*%
X149177500Y-119637258D02*
X149177500Y-119162742D01*
X150222500Y-119637258D02*
X150222500Y-119162742D01*
D11*
%TO.C,CN1*%
X146123476Y-92876524D02*
X146165902Y-92834098D01*
X152982412Y-99735460D02*
X146123476Y-92876524D01*
X153024838Y-99693034D02*
X152982412Y-99735460D01*
X153215757Y-85784243D02*
X153265254Y-85734746D01*
X153265254Y-85734746D02*
X160124190Y-92593682D01*
D14*
X153328894Y-100308217D02*
X153611737Y-100591059D01*
X153611737Y-100591059D02*
X153894579Y-100308217D01*
X153894579Y-100308217D02*
X153328894Y-100308217D01*
D11*
X160124190Y-92593682D02*
X160074693Y-92643179D01*
D15*
X152702082Y-97932338D02*
G75*
G02*
X152202082Y-97932338I-250000J0D01*
G01*
X152202082Y-97932338D02*
G75*
G02*
X152702082Y-97932338I250000J0D01*
G01*
D12*
%TO.C,R6*%
X169137258Y-109677500D02*
X168662742Y-109677500D01*
X169137258Y-110722500D02*
X168662742Y-110722500D01*
D13*
%TO.C,J2*%
X186507500Y-84750000D02*
X186507500Y-91250000D01*
X190017500Y-85310000D02*
X190017500Y-90660000D01*
X190017500Y-90660000D02*
X190947500Y-85310000D01*
X190947500Y-85310000D02*
X190947500Y-90660000D01*
X190947500Y-90660000D02*
X191867500Y-85310000D01*
X191867500Y-85310000D02*
X191867500Y-90660000D01*
X191867500Y-90660000D02*
X192757500Y-85310000D01*
X192757500Y-85310000D02*
X192757500Y-90660000D01*
X192757500Y-90660000D02*
X193627500Y-85310000D01*
X193627500Y-85310000D02*
X186507500Y-85330000D01*
X193627500Y-85310000D02*
X193627500Y-90660000D01*
X193627500Y-85310000D02*
X194177500Y-85310000D01*
X193627500Y-90660000D02*
X186507500Y-90660000D01*
X193627500Y-90660000D02*
X194187500Y-90660000D01*
X194177500Y-85310000D02*
X194187500Y-85300000D01*
X194187500Y-85300000D02*
X194187500Y-90680000D01*
D12*
%TO.C,R14*%
X153977500Y-119637258D02*
X153977500Y-119162742D01*
X155022500Y-119637258D02*
X155022500Y-119162742D01*
D13*
%TO.C,SW2*%
X168350000Y-84820000D02*
X168350000Y-87380000D01*
X169000000Y-85200000D02*
X169900000Y-84300000D01*
X169000000Y-86900000D02*
X169000000Y-85200000D01*
X169240000Y-83930000D02*
X168350000Y-84820000D01*
X169240000Y-88270000D02*
X168350000Y-87380000D01*
X169900000Y-84300000D02*
X171900000Y-84300000D01*
X170000000Y-87900000D02*
X169000000Y-86900000D01*
X171800000Y-87900000D02*
X170000000Y-87900000D01*
X171900000Y-84300000D02*
X172700000Y-85100000D01*
X172070000Y-83550000D02*
X169730000Y-83550000D01*
X172070000Y-88650000D02*
X169730000Y-88650000D01*
X172700000Y-85100000D02*
X172700000Y-87000000D01*
X172700000Y-87000000D02*
X171800000Y-87900000D01*
X173450000Y-84820000D02*
X172560000Y-83930000D01*
X173450000Y-84820000D02*
X173450000Y-87380000D01*
X173450000Y-87380000D02*
X172560000Y-88270000D01*
X172180000Y-86100000D02*
G75*
G02*
X169620000Y-86100000I-1280000J0D01*
G01*
X169620000Y-86100000D02*
G75*
G02*
X172180000Y-86100000I1280000J0D01*
G01*
D12*
%TO.C,C24*%
X172336306Y-96391136D02*
X172336306Y-95868632D01*
X173806306Y-96391136D02*
X173806306Y-95868632D01*
%TO.C,D7*%
X140727500Y-91265000D02*
X140727500Y-92735000D01*
X140727500Y-92735000D02*
X143012500Y-92735000D01*
X143012500Y-91265000D02*
X140727500Y-91265000D01*
D11*
%TO.C,U4*%
X171060000Y-112920000D02*
X171060000Y-114680000D01*
X171060000Y-114680000D02*
X172110000Y-114680000D01*
X172140000Y-112920000D02*
X173060000Y-112920000D01*
X174140000Y-112920000D02*
X174140000Y-114680000D01*
X174140000Y-114680000D02*
X173090000Y-114680000D01*
D12*
%TO.C,R4*%
X174762742Y-81376500D02*
X175237258Y-81376500D01*
X174762742Y-82421500D02*
X175237258Y-82421500D01*
%TO.C,C29*%
X170490000Y-106034420D02*
X170490000Y-106315580D01*
X171510000Y-106034420D02*
X171510000Y-106315580D01*
%TO.C,C5*%
X152565580Y-103690000D02*
X152284420Y-103690000D01*
X152565580Y-104710000D02*
X152284420Y-104710000D01*
%TO.C,C2*%
X150790000Y-119259420D02*
X150790000Y-119540580D01*
X151810000Y-119259420D02*
X151810000Y-119540580D01*
%TO.C,C25*%
X161390000Y-89759420D02*
X161390000Y-90040580D01*
X162410000Y-89759420D02*
X162410000Y-90040580D01*
D13*
%TO.C,J1*%
X130812500Y-88950000D02*
X130812500Y-83570000D01*
X130822500Y-88940000D02*
X130812500Y-88950000D01*
X131372500Y-83590000D02*
X130812500Y-83590000D01*
X131372500Y-83590000D02*
X138492500Y-83590000D01*
X131372500Y-88940000D02*
X130822500Y-88940000D01*
X131372500Y-88940000D02*
X131372500Y-83590000D01*
X131372500Y-88940000D02*
X138492500Y-88920000D01*
X132242500Y-83590000D02*
X131372500Y-88940000D01*
X132242500Y-88940000D02*
X132242500Y-83590000D01*
X133132500Y-83590000D02*
X132242500Y-88940000D01*
X133132500Y-88940000D02*
X133132500Y-83590000D01*
X134052500Y-83590000D02*
X133132500Y-88940000D01*
X134052500Y-88940000D02*
X134052500Y-83590000D01*
X134982500Y-83590000D02*
X134052500Y-88940000D01*
X134982500Y-88940000D02*
X134982500Y-83590000D01*
X138492500Y-89500000D02*
X138492500Y-83000000D01*
D12*
%TO.C,C13*%
X160587978Y-95809227D02*
X160786789Y-96008038D01*
X161309227Y-95087978D02*
X161508038Y-95286789D01*
%TO.C,FB2*%
X173693989Y-108740000D02*
X172894745Y-108740000D01*
X173693989Y-109860000D02*
X172894745Y-109860000D01*
%TO.C,J7*%
X149310000Y-80870000D02*
X149310000Y-83530000D01*
X159530000Y-80870000D02*
X149310000Y-80870000D01*
X159530000Y-80870000D02*
X159530000Y-83530000D01*
X159530000Y-83530000D02*
X149310000Y-83530000D01*
X160800000Y-80870000D02*
X162130000Y-80870000D01*
X162130000Y-80870000D02*
X162130000Y-82200000D01*
%TO.C,C26*%
X174859420Y-82990000D02*
X175140580Y-82990000D01*
X174859420Y-84010000D02*
X175140580Y-84010000D01*
%TO.C,R1*%
X147277500Y-109862742D02*
X147277500Y-110337258D01*
X148322500Y-109862742D02*
X148322500Y-110337258D01*
%TO.C,C16*%
X173259420Y-107126666D02*
X173540580Y-107126666D01*
X173259420Y-108146666D02*
X173540580Y-108146666D01*
%TO.C,R12*%
X152662742Y-110277500D02*
X153137258Y-110277500D01*
X152662742Y-111322500D02*
X153137258Y-111322500D01*
%TO.C,C17*%
X172090000Y-92659420D02*
X172090000Y-92940580D01*
X173110000Y-92659420D02*
X173110000Y-92940580D01*
%TO.C,J6*%
X140870000Y-102095000D02*
X142200000Y-102095000D01*
X140870000Y-103425000D02*
X140870000Y-102095000D01*
X140870000Y-104695000D02*
X140870000Y-107295000D01*
X140870000Y-104695000D02*
X143530000Y-104695000D01*
X140870000Y-107295000D02*
X143530000Y-107295000D01*
X143530000Y-104695000D02*
X143530000Y-107295000D01*
%TO.C,C7*%
X154740000Y-108890580D02*
X154740000Y-108609420D01*
X155760000Y-108890580D02*
X155760000Y-108609420D01*
%TO.C,R11*%
X152637742Y-108677500D02*
X153112258Y-108677500D01*
X152637742Y-109722500D02*
X153112258Y-109722500D01*
%TO.C,C19*%
X167240000Y-105890580D02*
X167240000Y-105609420D01*
X168260000Y-105890580D02*
X168260000Y-105609420D01*
%TO.C,C11*%
X158339970Y-118261219D02*
X158538781Y-118460030D01*
X159061219Y-117539970D02*
X159260030Y-117738781D01*
%TO.C,D4*%
X147490000Y-118390000D02*
X147490000Y-119800000D01*
X148710000Y-118390000D02*
X147490000Y-118390000D01*
X148710000Y-118390000D02*
X148710000Y-119800000D01*
%TO.C,D1*%
X150329289Y-114208041D02*
X149332268Y-115205061D01*
X151191959Y-115070711D02*
X150194939Y-116067732D01*
X151191959Y-115070711D02*
X150329289Y-114208041D01*
D13*
%TO.C,J4*%
X186507500Y-110650000D02*
X186507500Y-117150000D01*
X190017500Y-111210000D02*
X190017500Y-116560000D01*
X190017500Y-116560000D02*
X190947500Y-111210000D01*
X190947500Y-111210000D02*
X190947500Y-116560000D01*
X190947500Y-116560000D02*
X191867500Y-111210000D01*
X191867500Y-111210000D02*
X191867500Y-116560000D01*
X191867500Y-116560000D02*
X192757500Y-111210000D01*
X192757500Y-111210000D02*
X192757500Y-116560000D01*
X192757500Y-116560000D02*
X193627500Y-111210000D01*
X193627500Y-111210000D02*
X186507500Y-111230000D01*
X193627500Y-111210000D02*
X193627500Y-116560000D01*
X193627500Y-111210000D02*
X194177500Y-111210000D01*
X193627500Y-116560000D02*
X186507500Y-116560000D01*
X193627500Y-116560000D02*
X194187500Y-116560000D01*
X194177500Y-111210000D02*
X194187500Y-111200000D01*
X194187500Y-111200000D02*
X194187500Y-116580000D01*
D12*
%TO.C,R3*%
X159677500Y-86487742D02*
X159677500Y-86962258D01*
X160722500Y-86487742D02*
X160722500Y-86962258D01*
%TO.C,D5*%
X146290000Y-97290000D02*
X146290000Y-98700000D01*
X147510000Y-97290000D02*
X146290000Y-97290000D01*
X147510000Y-97290000D02*
X147510000Y-98700000D01*
%TO.C,C20*%
X162959420Y-102690000D02*
X163240580Y-102690000D01*
X162959420Y-103710000D02*
X163240580Y-103710000D01*
%TO.C,R16*%
X147862770Y-96801697D02*
X148198303Y-97137230D01*
X148601697Y-96062770D02*
X148937230Y-96398303D01*
%TO.C,C4*%
X172065580Y-115990000D02*
X171784420Y-115990000D01*
X172065580Y-117010000D02*
X171784420Y-117010000D01*
%TO.C,R8*%
X162762742Y-100227500D02*
X163237258Y-100227500D01*
X162762742Y-101272500D02*
X163237258Y-101272500D01*
%TO.C,D2*%
X150525198Y-114029289D02*
X151387868Y-114891959D01*
X150525198Y-114029289D02*
X151522218Y-113032268D01*
X151387868Y-114891959D02*
X152384889Y-113894939D01*
D13*
%TO.C,J3*%
X186507500Y-97750000D02*
X186507500Y-104250000D01*
X190017500Y-98310000D02*
X190017500Y-103660000D01*
X190017500Y-103660000D02*
X190947500Y-98310000D01*
X190947500Y-98310000D02*
X190947500Y-103660000D01*
X190947500Y-103660000D02*
X191867500Y-98310000D01*
X191867500Y-98310000D02*
X191867500Y-103660000D01*
X191867500Y-103660000D02*
X192757500Y-98310000D01*
X192757500Y-98310000D02*
X192757500Y-103660000D01*
X192757500Y-103660000D02*
X193627500Y-98310000D01*
X193627500Y-98310000D02*
X186507500Y-98330000D01*
X193627500Y-98310000D02*
X193627500Y-103660000D01*
X193627500Y-98310000D02*
X194177500Y-98310000D01*
X193627500Y-103660000D02*
X186507500Y-103660000D01*
X193627500Y-103660000D02*
X194187500Y-103660000D01*
X194177500Y-98310000D02*
X194187500Y-98300000D01*
X194187500Y-98300000D02*
X194187500Y-103680000D01*
D12*
%TO.C,U1*%
X154994340Y-112125223D02*
X155330216Y-112461099D01*
X155330216Y-111789347D02*
X154994340Y-112125223D01*
X159763775Y-107355788D02*
X160099651Y-107019912D01*
X160099651Y-107019912D02*
X160435527Y-107355788D01*
X160099651Y-117230534D02*
X159763775Y-116894658D01*
X160435527Y-116894658D02*
X160099651Y-117230534D01*
X164869086Y-111789347D02*
X165035256Y-111955517D01*
X164869086Y-112461099D02*
X164992830Y-112337355D01*
X165608013Y-112188863D02*
X165268602Y-112528274D01*
X165204962Y-112125223D01*
X165608013Y-112188863D01*
G36*
X165608013Y-112188863D02*
G01*
X165268602Y-112528274D01*
X165204962Y-112125223D01*
X165608013Y-112188863D01*
G37*
%TO.C,U2*%
X172000000Y-99890000D02*
X170500000Y-99890000D01*
X172000000Y-99890000D02*
X173500000Y-99890000D01*
X172000000Y-103110000D02*
X170500000Y-103110000D01*
X172000000Y-103110000D02*
X173500000Y-103110000D01*
X169787500Y-100065000D02*
X169547500Y-99735000D01*
X170027500Y-99735000D01*
X169787500Y-100065000D01*
G36*
X169787500Y-100065000D02*
G01*
X169547500Y-99735000D01*
X170027500Y-99735000D01*
X169787500Y-100065000D01*
G37*
%TO.C,R15*%
X145362742Y-119477500D02*
X145837258Y-119477500D01*
X145362742Y-120522500D02*
X145837258Y-120522500D01*
D11*
%TO.C,U3*%
X151370000Y-105160000D02*
X151370000Y-106210000D01*
X151370000Y-108240000D02*
X151370000Y-107190000D01*
X153130000Y-105160000D02*
X151370000Y-105160000D01*
X153130000Y-106240000D02*
X153130000Y-107160000D01*
X153130000Y-108240000D02*
X151370000Y-108240000D01*
D13*
%TO.C,SW1*%
X162750000Y-84820000D02*
X163640000Y-83930000D01*
X162750000Y-87380000D02*
X162750000Y-84820000D01*
X162750000Y-87380000D02*
X163640000Y-88270000D01*
X163500000Y-85200000D02*
X164400000Y-84300000D01*
X163500000Y-87100000D02*
X163500000Y-85200000D01*
X164130000Y-83550000D02*
X166470000Y-83550000D01*
X164130000Y-88650000D02*
X166470000Y-88650000D01*
X164300000Y-87900000D02*
X163500000Y-87100000D01*
X164400000Y-84300000D02*
X166200000Y-84300000D01*
X166200000Y-84300000D02*
X167200000Y-85300000D01*
X166300000Y-87900000D02*
X164300000Y-87900000D01*
X166960000Y-83930000D02*
X167850000Y-84820000D01*
X166960000Y-88270000D02*
X167850000Y-87380000D01*
X167200000Y-85300000D02*
X167200000Y-87000000D01*
X167200000Y-87000000D02*
X166300000Y-87900000D01*
X167850000Y-87380000D02*
X167850000Y-84820000D01*
X166580000Y-86100000D02*
G75*
G02*
X164020000Y-86100000I-1280000J0D01*
G01*
X164020000Y-86100000D02*
G75*
G02*
X166580000Y-86100000I1280000J0D01*
G01*
D12*
%TO.C,C1*%
X163240000Y-118890580D02*
X163240000Y-118609420D01*
X164260000Y-118890580D02*
X164260000Y-118609420D01*
%TO.C,R9*%
X164012742Y-98227500D02*
X164487258Y-98227500D01*
X164012742Y-99272500D02*
X164487258Y-99272500D01*
%TO.C,FB1*%
X154599622Y-101940000D02*
X153800378Y-101940000D01*
X154599622Y-103060000D02*
X153800378Y-103060000D01*
%TO.C,D6*%
X140527500Y-119040000D02*
X140527500Y-120960000D01*
X140527500Y-120960000D02*
X143212500Y-120960000D01*
X143212500Y-119040000D02*
X140527500Y-119040000D01*
%TO.C,R5*%
X167937258Y-108177500D02*
X167462742Y-108177500D01*
X167937258Y-109222500D02*
X167462742Y-109222500D01*
%TO.C,C22*%
X166515000Y-95238748D02*
X166515000Y-95761252D01*
X167985000Y-95238748D02*
X167985000Y-95761252D01*
%TO.C,C18*%
X167490000Y-99609420D02*
X167490000Y-99890580D01*
X168510000Y-99609420D02*
X168510000Y-99890580D01*
%TD*%
%LPC*%
D16*
%TO.C,R17*%
X156075000Y-120225000D03*
X156075000Y-118575000D03*
%TD*%
D17*
%TO.C,C27*%
X167800000Y-113200000D03*
X169350000Y-113200000D03*
%TD*%
D18*
%TO.C,C9*%
X165701992Y-110451992D03*
X166798008Y-111548008D03*
%TD*%
D19*
%TO.C,FB3*%
X169325000Y-118200000D03*
X167200000Y-118200000D03*
%TD*%
D20*
%TO.C,C12*%
X158151992Y-97748008D03*
X159248008Y-96651992D03*
%TD*%
D21*
%TO.C,C23*%
X172650000Y-104300000D03*
X174550000Y-104300000D03*
%TD*%
D22*
%TO.C,L1*%
X147250000Y-88362500D03*
X147250000Y-86237500D03*
%TD*%
D17*
%TO.C,C15*%
X170850000Y-98900000D03*
X172400000Y-98900000D03*
%TD*%
D16*
%TO.C,R7*%
X162300000Y-106325000D03*
X162300000Y-104675000D03*
%TD*%
D23*
%TO.C,X1*%
X169120000Y-94500000D03*
X169120000Y-96700000D03*
X170880000Y-96700000D03*
X170880000Y-94500000D03*
%TD*%
D24*
%TO.C,C8*%
X157000000Y-107775000D03*
X157000000Y-106225000D03*
%TD*%
D25*
%TO.C,J8*%
X142912500Y-97800000D03*
X142912500Y-100350000D03*
X142912500Y-95250000D03*
%TD*%
D24*
%TO.C,C3*%
X149500000Y-106600000D03*
X149500000Y-105050000D03*
%TD*%
D16*
%TO.C,R18*%
X163850000Y-106325000D03*
X163850000Y-104675000D03*
%TD*%
D26*
%TO.C,D3*%
X149500000Y-108250000D03*
X149500000Y-109050000D03*
%TD*%
D24*
%TO.C,C6*%
X157000000Y-104750000D03*
X157000000Y-103200000D03*
%TD*%
D27*
%TO.C,R13*%
X152900000Y-118575000D03*
X152900000Y-120225000D03*
%TD*%
D18*
%TO.C,C10*%
X165701992Y-113701992D03*
X166798008Y-114798008D03*
%TD*%
D16*
%TO.C,R10*%
X165500000Y-97075000D03*
X165500000Y-95425000D03*
%TD*%
D28*
%TO.C,J5*%
X144885000Y-110410000D03*
X144885000Y-116190000D03*
D29*
X145955000Y-110100000D03*
X145955000Y-110900000D03*
D30*
X145955000Y-112050000D03*
X145955000Y-113050000D03*
X145955000Y-113550000D03*
X145955000Y-111550000D03*
D29*
X145955000Y-116500000D03*
X145955000Y-115700000D03*
D30*
X145955000Y-115050000D03*
X145955000Y-114050000D03*
X145955000Y-112550000D03*
X145955000Y-114550000D03*
D31*
X145385000Y-108980000D03*
D32*
X141235000Y-108980000D03*
D31*
X145385000Y-117620000D03*
D32*
X141235000Y-117620000D03*
%TD*%
D17*
%TO.C,C28*%
X172650000Y-106093333D03*
X174200000Y-106093333D03*
%TD*%
%TO.C,C14*%
X172450000Y-111000000D03*
X174000000Y-111000000D03*
%TD*%
D33*
%TO.C,C21*%
X165500000Y-100825000D03*
X165500000Y-102375000D03*
%TD*%
D16*
%TO.C,R2*%
X149700000Y-120225000D03*
X149700000Y-118575000D03*
%TD*%
D34*
%TO.C,CN1*%
X153442031Y-99275841D03*
X154219849Y-98498023D03*
X154997666Y-97720206D03*
X155775483Y-96942388D03*
X156553301Y-96164571D03*
X157331118Y-95386753D03*
X158108936Y-94608936D03*
X158886753Y-93831119D03*
X159664571Y-93053301D03*
X152805635Y-86194365D03*
X152027817Y-86972183D03*
X151250000Y-87750000D03*
X150472183Y-88527818D03*
X149694365Y-89305635D03*
X148916548Y-90083453D03*
X148138730Y-90861270D03*
X147360913Y-91639087D03*
X146583095Y-92416905D03*
%TD*%
D35*
%TO.C,R6*%
X169725000Y-110200000D03*
X168075000Y-110200000D03*
%TD*%
D25*
%TO.C,J2*%
X182087500Y-88000000D03*
X182087500Y-85450000D03*
X182087500Y-90550000D03*
%TD*%
D16*
%TO.C,R14*%
X154500000Y-120225000D03*
X154500000Y-118575000D03*
%TD*%
D36*
%TO.C,SW2*%
X172750000Y-82800000D03*
X172750000Y-89400000D03*
X169050000Y-82800000D03*
X169050000Y-89400000D03*
%TD*%
D37*
%TO.C,C24*%
X173071306Y-97079884D03*
X173071306Y-95179884D03*
%TD*%
D38*
%TO.C,D7*%
X141425000Y-92000000D03*
X143000000Y-92000000D03*
%TD*%
D39*
%TO.C,U4*%
X173550000Y-112560000D03*
X171650000Y-112560000D03*
X172600000Y-115040000D03*
%TD*%
D40*
%TO.C,R4*%
X174175000Y-81899000D03*
X175825000Y-81899000D03*
%TD*%
D33*
%TO.C,C29*%
X171000000Y-105400000D03*
X171000000Y-106950000D03*
%TD*%
D41*
%TO.C,C5*%
X153200000Y-104200000D03*
X151650000Y-104200000D03*
%TD*%
D33*
%TO.C,C2*%
X151300000Y-118625000D03*
X151300000Y-120175000D03*
%TD*%
%TO.C,C25*%
X161900000Y-89125000D03*
X161900000Y-90675000D03*
%TD*%
D25*
%TO.C,J1*%
X142912500Y-86250000D03*
X142912500Y-88800000D03*
X142912500Y-83700000D03*
%TD*%
D18*
%TO.C,C13*%
X160500000Y-95000000D03*
X161596016Y-96096016D03*
%TD*%
D19*
%TO.C,FB2*%
X174356867Y-109300000D03*
X172231867Y-109300000D03*
%TD*%
D42*
%TO.C,J7*%
X160800000Y-82200000D03*
D43*
X158260000Y-82200000D03*
X155720000Y-82200000D03*
X153180000Y-82200000D03*
X150640000Y-82200000D03*
%TD*%
D17*
%TO.C,C26*%
X174225000Y-83500000D03*
X175775000Y-83500000D03*
%TD*%
D27*
%TO.C,R1*%
X147800000Y-109275000D03*
X147800000Y-110925000D03*
%TD*%
D17*
%TO.C,C16*%
X172625000Y-107636666D03*
X174175000Y-107636666D03*
%TD*%
D40*
%TO.C,R12*%
X152075000Y-110800000D03*
X153725000Y-110800000D03*
%TD*%
D33*
%TO.C,C17*%
X172600000Y-92025000D03*
X172600000Y-93575000D03*
%TD*%
D42*
%TO.C,J6*%
X142200000Y-103425000D03*
D43*
X142200000Y-105965000D03*
%TD*%
D24*
%TO.C,C7*%
X155250000Y-109525000D03*
X155250000Y-107975000D03*
%TD*%
D40*
%TO.C,R11*%
X152050000Y-109200000D03*
X153700000Y-109200000D03*
%TD*%
D24*
%TO.C,C19*%
X167750000Y-106525000D03*
X167750000Y-104975000D03*
%TD*%
D18*
%TO.C,C11*%
X158251992Y-117451992D03*
X159348008Y-118548008D03*
%TD*%
D26*
%TO.C,D4*%
X148100000Y-118900000D03*
X148100000Y-119700000D03*
%TD*%
D44*
%TO.C,D1*%
X150400000Y-115000000D03*
X149834314Y-115565686D03*
%TD*%
D25*
%TO.C,J4*%
X182087500Y-113900000D03*
X182087500Y-111350000D03*
X182087500Y-116450000D03*
%TD*%
D27*
%TO.C,R3*%
X160200000Y-85900000D03*
X160200000Y-87550000D03*
%TD*%
D26*
%TO.C,D5*%
X146900000Y-97800000D03*
X146900000Y-98600000D03*
%TD*%
D17*
%TO.C,C20*%
X162325000Y-103200000D03*
X163875000Y-103200000D03*
%TD*%
D45*
%TO.C,R16*%
X147816637Y-96016637D03*
X148983363Y-97183363D03*
%TD*%
D41*
%TO.C,C4*%
X172700000Y-116500000D03*
X171150000Y-116500000D03*
%TD*%
D40*
%TO.C,R8*%
X162175000Y-100750000D03*
X163825000Y-100750000D03*
%TD*%
D46*
%TO.C,D2*%
X151317157Y-114100000D03*
X151882843Y-113534314D03*
%TD*%
D25*
%TO.C,J3*%
X182087500Y-101000000D03*
X182087500Y-98450000D03*
X182087500Y-103550000D03*
%TD*%
D47*
%TO.C,U1*%
X164474874Y-111639087D03*
X164121321Y-111285534D03*
X163767767Y-110931980D03*
X163414214Y-110578427D03*
X163060661Y-110224874D03*
X162707107Y-109871320D03*
X162353554Y-109517767D03*
X162000000Y-109164213D03*
X161646447Y-108810660D03*
X161292894Y-108457107D03*
X160939340Y-108103553D03*
X160585787Y-107750000D03*
D48*
X159613515Y-107750000D03*
X159259962Y-108103553D03*
X158906408Y-108457107D03*
X158552855Y-108810660D03*
X158199302Y-109164213D03*
X157845748Y-109517767D03*
X157492195Y-109871320D03*
X157138641Y-110224874D03*
X156785088Y-110578427D03*
X156431535Y-110931980D03*
X156077981Y-111285534D03*
X155724428Y-111639087D03*
D47*
X155724428Y-112611359D03*
X156077981Y-112964912D03*
X156431535Y-113318466D03*
X156785088Y-113672019D03*
X157138641Y-114025572D03*
X157492195Y-114379126D03*
X157845748Y-114732679D03*
X158199302Y-115086233D03*
X158552855Y-115439786D03*
X158906408Y-115793339D03*
X159259962Y-116146893D03*
X159613515Y-116500446D03*
D48*
X160585787Y-116500446D03*
X160939340Y-116146893D03*
X161292894Y-115793339D03*
X161646447Y-115439786D03*
X162000000Y-115086233D03*
X162353554Y-114732679D03*
X162707107Y-114379126D03*
X163060661Y-114025572D03*
X163414214Y-113672019D03*
X163767767Y-113318466D03*
X164121321Y-112964912D03*
X164474874Y-112611359D03*
D49*
X160099651Y-112125223D03*
%TD*%
D50*
%TO.C,U2*%
X169887500Y-100500000D03*
X169887500Y-101000000D03*
X169887500Y-101500000D03*
X169887500Y-102000000D03*
X169887500Y-102500000D03*
X174112500Y-102500000D03*
X174112500Y-102000000D03*
X174112500Y-101500000D03*
X174112500Y-101000000D03*
X174112500Y-100500000D03*
%TD*%
D40*
%TO.C,R15*%
X144775000Y-120000000D03*
X146425000Y-120000000D03*
%TD*%
D51*
%TO.C,U3*%
X153490000Y-107650000D03*
X153490000Y-105750000D03*
X151010000Y-106700000D03*
%TD*%
D36*
%TO.C,SW1*%
X163450000Y-89400000D03*
X163450000Y-82800000D03*
X167150000Y-89400000D03*
X167150000Y-82800000D03*
%TD*%
D24*
%TO.C,C1*%
X163750000Y-119525000D03*
X163750000Y-117975000D03*
%TD*%
D40*
%TO.C,R9*%
X163425000Y-98750000D03*
X165075000Y-98750000D03*
%TD*%
D19*
%TO.C,FB1*%
X155262500Y-102500000D03*
X153137500Y-102500000D03*
%TD*%
D52*
%TO.C,D6*%
X141275000Y-120000000D03*
X143150000Y-120000000D03*
%TD*%
D35*
%TO.C,R5*%
X168525000Y-108700000D03*
X166875000Y-108700000D03*
%TD*%
D53*
%TO.C,C22*%
X167250000Y-94550000D03*
X167250000Y-96450000D03*
%TD*%
D33*
%TO.C,C18*%
X168000000Y-98975000D03*
X168000000Y-100525000D03*
%TD*%
G36*
X184943039Y-79619685D02*
G01*
X184988794Y-79672489D01*
X185000000Y-79724000D01*
X185000000Y-80476000D01*
X184980315Y-80543039D01*
X184927511Y-80588794D01*
X184876000Y-80600000D01*
X140124000Y-80600000D01*
X140056961Y-80580315D01*
X140011206Y-80527511D01*
X140000000Y-80476000D01*
X140000000Y-79724000D01*
X140019685Y-79656961D01*
X140072489Y-79611206D01*
X140124000Y-79600000D01*
X184876000Y-79600000D01*
X184943039Y-79619685D01*
G37*
G36*
X184876267Y-121497152D02*
G01*
X184943264Y-121516981D01*
X184988905Y-121569883D01*
X185000000Y-121621152D01*
X185000000Y-122276000D01*
X184980315Y-122343039D01*
X184927511Y-122388794D01*
X184876000Y-122400000D01*
X140124000Y-122400000D01*
X140056961Y-122380315D01*
X140011206Y-122327511D01*
X140000000Y-122276000D01*
X140000000Y-121524912D01*
X140019685Y-121457873D01*
X140072489Y-121412118D01*
X140124267Y-121400912D01*
X184876267Y-121497152D01*
G37*
%LPD*%
M02*
