%TF.GenerationSoftware,KiCad,Pcbnew,8.0.4*%
%TF.CreationDate,2024-10-01T01:20:39+08:00*%
%TF.ProjectId,usb_si5351_gpsdo,7573625f-7369-4353-9335-315f67707364,rev?*%
%TF.SameCoordinates,Original*%
%TF.FileFunction,Soldermask,Bot*%
%TF.FilePolarity,Negative*%
%FSLAX46Y46*%
G04 Gerber Fmt 4.6, Leading zero omitted, Abs format (unit mm)*
G04 Created by KiCad (PCBNEW 8.0.4) date 2024-10-01 01:20:39*
%MOMM*%
%LPD*%
G01*
G04 APERTURE LIST*
%ADD10R,4.800000X1.200000*%
%ADD11C,0.650000*%
%ADD12O,2.100000X1.000000*%
%ADD13O,1.800000X1.000000*%
%ADD14R,1.700000X1.700000*%
%ADD15O,1.700000X1.700000*%
G04 APERTURE END LIST*
D10*
%TO.C,J8*%
X142912500Y-100350000D03*
X142912500Y-95250000D03*
%TD*%
D11*
%TO.C,J5*%
X144885000Y-110410000D03*
X144885000Y-116190000D03*
D12*
X145385000Y-108980000D03*
D13*
X141235000Y-108980000D03*
D12*
X145385000Y-117620000D03*
D13*
X141235000Y-117620000D03*
%TD*%
D10*
%TO.C,J2*%
X182087500Y-85450000D03*
X182087500Y-90550000D03*
%TD*%
%TO.C,J1*%
X142912500Y-88800000D03*
X142912500Y-83700000D03*
%TD*%
D14*
%TO.C,J7*%
X160800000Y-82200000D03*
D15*
X158260000Y-82200000D03*
X155720000Y-82200000D03*
X153180000Y-82200000D03*
X150640000Y-82200000D03*
%TD*%
D14*
%TO.C,J6*%
X142200000Y-103425000D03*
D15*
X142200000Y-105965000D03*
%TD*%
D10*
%TO.C,J4*%
X182087500Y-111350000D03*
X182087500Y-116450000D03*
%TD*%
%TO.C,J3*%
X182087500Y-98450000D03*
X182087500Y-103550000D03*
%TD*%
G36*
X184943039Y-79619685D02*
G01*
X184988794Y-79672489D01*
X185000000Y-79724000D01*
X185000000Y-80476000D01*
X184980315Y-80543039D01*
X184927511Y-80588794D01*
X184876000Y-80600000D01*
X140124000Y-80600000D01*
X140056961Y-80580315D01*
X140011206Y-80527511D01*
X140000000Y-80476000D01*
X140000000Y-79724000D01*
X140019685Y-79656961D01*
X140072489Y-79611206D01*
X140124000Y-79600000D01*
X184876000Y-79600000D01*
X184943039Y-79619685D01*
G37*
G36*
X184876267Y-121497152D02*
G01*
X184943264Y-121516981D01*
X184988905Y-121569883D01*
X185000000Y-121621152D01*
X185000000Y-122276000D01*
X184980315Y-122343039D01*
X184927511Y-122388794D01*
X184876000Y-122400000D01*
X140124000Y-122400000D01*
X140056961Y-122380315D01*
X140011206Y-122327511D01*
X140000000Y-122276000D01*
X140000000Y-121524912D01*
X140019685Y-121457873D01*
X140072489Y-121412118D01*
X140124267Y-121400912D01*
X184876267Y-121497152D01*
G37*
M02*
